<?xml version="1.0" encoding="utf-8"?>
<!-- Generator: Adobe Illustrator 27.4.1, SVG Export Plug-In . SVG Version: 6.00 Build 0)  -->
<svg version="1.1" id="Layer_1" xmlns="http://www.w3.org/2000/svg" xmlns:xlink="http://www.w3.org/1999/xlink" x="0px" y="0px"
	 viewBox="0 0 290.85 103.13" style="enable-background:new 0 0 290.85 103.13;" xml:space="preserve">
<style type="text/css">
	.st0{fill:#08151D;}
	.st1{clip-path:url(#SVGID_00000043444768029370707370000016448923207182858410_);}
	.st2{fill:#4C4C4D;}
	.st3{fill:#F4D400;}
	.st4{fill:#FFFFFF;}
	.st5{clip-path:url(#SVGID_00000032610869217238085430000005348391688417555617_);}
	.st6{fill:#12110D;}
	.st7{fill:#FFD800;}
	.st8{clip-path:url(#SVGID_00000134971540218641920220000015842854622510992280_);fill:#E6B504;}
	.st9{clip-path:url(#SVGID_00000134971540218641920220000015842854622510992280_);fill:#E8B902;}
	.st10{clip-path:url(#SVGID_00000134971540218641920220000015842854622510992280_);fill:#EABD02;}
	.st11{clip-path:url(#SVGID_00000134971540218641920220000015842854622510992280_);fill:#EBC002;}
	.st12{clip-path:url(#SVGID_00000134971540218641920220000015842854622510992280_);fill:#ECC300;}
	.st13{clip-path:url(#SVGID_00000134971540218641920220000015842854622510992280_);fill:#EEC600;}
	.st14{clip-path:url(#SVGID_00000134971540218641920220000015842854622510992280_);fill:#EEC900;}
	.st15{clip-path:url(#SVGID_00000134971540218641920220000015842854622510992280_);fill:#EECB01;}
	.st16{clip-path:url(#SVGID_00000134971540218641920220000015842854622510992280_);fill:#F0CC00;}
	.st17{clip-path:url(#SVGID_00000134971540218641920220000015842854622510992280_);fill:#F2CF00;}
	.st18{clip-path:url(#SVGID_00000134971540218641920220000015842854622510992280_);fill:#F3D300;}
	.st19{clip-path:url(#SVGID_00000134971540218641920220000015842854622510992280_);fill:#F4D400;}
	.st20{clip-path:url(#SVGID_00000134971540218641920220000015842854622510992280_);fill:#F4D500;}
	.st21{clip-path:url(#SVGID_00000134971540218641920220000015842854622510992280_);fill:#F5D700;}
	.st22{clip-path:url(#SVGID_00000134971540218641920220000015842854622510992280_);fill:#F6D900;}
	.st23{clip-path:url(#SVGID_00000134971540218641920220000015842854622510992280_);fill:#F5DA00;}
	.st24{clip-path:url(#SVGID_00000134971540218641920220000015842854622510992280_);fill:#F7DC01;}
	.st25{clip-path:url(#SVGID_00000134971540218641920220000015842854622510992280_);fill:#F7DD00;}
	.st26{clip-path:url(#SVGID_00000134971540218641920220000015842854622510992280_);fill:#F8DE00;}
	.st27{clip-path:url(#SVGID_00000134971540218641920220000015842854622510992280_);fill:#F8DF01;}
	.st28{clip-path:url(#SVGID_00000134971540218641920220000015842854622510992280_);fill:#F9E000;}
	.st29{clip-path:url(#SVGID_00000134971540218641920220000015842854622510992280_);fill:#FAE004;}
	.st30{clip-path:url(#SVGID_00000134971540218641920220000015842854622510992280_);fill:#FAE202;}
	.st31{clip-path:url(#SVGID_00000134971540218641920220000015842854622510992280_);fill:#F9E302;}
	.st32{clip-path:url(#SVGID_00000134971540218641920220000015842854622510992280_);fill:#F9E301;}
	.st33{clip-path:url(#SVGID_00000134971540218641920220000015842854622510992280_);fill:#FBE400;}
	.st34{clip-path:url(#SVGID_00000134971540218641920220000015842854622510992280_);fill:#FAE404;}
	.st35{clip-path:url(#SVGID_00000134971540218641920220000015842854622510992280_);fill:#FBE600;}
	.st36{clip-path:url(#SVGID_00000134971540218641920220000015842854622510992280_);fill:#FCE703;}
	.st37{clip-path:url(#SVGID_00000134971540218641920220000015842854622510992280_);fill:#FCE809;}
	.st38{clip-path:url(#SVGID_00000134971540218641920220000015842854622510992280_);fill:#FCEA0D;}
	.st39{clip-path:url(#SVGID_00000134971540218641920220000015842854622510992280_);fill:#FDE90C;}
	.st40{fill:#4B4B4C;}
</style>
<rect y="-0.01" width="290.85" height="103.15"/>
<g>
	<path d="M179.28,22.38L179.28,22.38L179.28,22.38c0,0,0.33-1.97,4.34-2.32c0.53-0.03,1.12-0.05,1.78-0.05l0,0c0,0,0,0,0,0h0
		c0,0-4.75-2.79-12.91-0.97c0,0-1.09-1.51,1.33-2.2c0,0,0.35,0.11,0.33-0.33l0-0.1l-0.02-0.3c0-0.05-0.03-0.08-0.06-0.11
		c-0.06-0.03-0.16-0.05-0.33-0.04c0,0-14.26-0.27-26.89,13.46c0,0-10.14,14.43-4.19,14.18l-0.45,1.15c0,0-1.79,2.4-0.61,2.77
		c0,0,2.81-2.84,6.78-2.99c0,0,1.19,0,2.25,0.4c0,0,0.38-0.42,1.19,0.1c0,0,0.22,0.22,1.78-0.26l2.76-0.75l7.25-4.2l2.24-1.39
		c0,0,1.81-1.89,5.02-4.07l0-0.01c0,0,7.04-4.88,13.81-6.22c0,0,4.32-0.76,10,0.65C194.71,28.8,189.61,21.88,179.28,22.38z"/>
	<path class="st0" d="M167.39,16.86c0,0-0.95,0.42-1.27,2.18l-3.44-0.87L167.39,16.86z"/>
	<g>
		<defs>
			<path id="SVGID_1_" d="M179.28,22.38c-0.01,0,0.44-2.53,6.12-2.36c0,0-4.75-2.79-12.91-0.97c0,0-1.09-1.51,1.33-2.2
				c0,0,0.35,0.11,0.33-0.33l0-0.1l-0.02-0.3c0-0.05-0.03-0.08-0.06-0.11c-0.06-0.03-0.16-0.05-0.33-0.04
				c0,0-14.26-0.27-26.89,13.46c0,0-10.14,14.43-4.19,14.18l-0.45,1.15c0,0-1.79,2.4-0.61,2.77c0,0,2.81-2.84,6.78-2.99
				c0,0,1.19,0,2.25,0.4c0,0,0.38-0.42,1.19,0.1c0,0,0.22,0.22,1.78-0.26l2.76-0.75l7.25-4.2l2.24-1.39c0,0,1.81-1.89,5.02-4.07
				l0-0.01c0,0,7.04-4.88,13.81-6.22c0,0,4.32-0.76,10,0.65C194.71,28.8,189.61,21.88,179.28,22.38z"/>
		</defs>
		<clipPath id="SVGID_00000150076564828982720650000004795596857406610102_">
			<use xlink:href="#SVGID_1_"  style="overflow:visible;"/>
		</clipPath>
		<g style="clip-path:url(#SVGID_00000150076564828982720650000004795596857406610102_);">
			<g>
				<g>
					<path class="st2" d="M182.61,20.99c-0.17-0.02-0.34,0.1-0.39,0.27c-0.05,0.2,0.06,0.4,0.26,0.46c0.2,0.05,0.4-0.06,0.46-0.26
						c0.05-0.17-0.04-0.36-0.2-0.43l0.61-2.19l6.22-3.51l2.23-8.03l-0.13-0.03l-2.22,7.98l-6.22,3.51L182.61,20.99z M182.81,21.42
						c-0.04,0.13-0.17,0.2-0.3,0.17c-0.13-0.04-0.2-0.17-0.17-0.3c0.03-0.11,0.13-0.18,0.23-0.17c0.02,0,0.04,0,0.06,0.01
						c0.02,0.01,0.04,0.02,0.06,0.03C182.8,21.21,182.84,21.32,182.81,21.42z"/>
					<path class="st2" d="M184.39,18.69c0.04,0.04,0.09,0.08,0.15,0.09c0.16,0.05,0.33-0.05,0.38-0.21
						c0.05-0.16-0.05-0.33-0.21-0.38c-0.16-0.05-0.33,0.05-0.38,0.21c-0.02,0.06-0.01,0.12,0,0.17l-2.28,1.29l-1.33,4.78
						c-0.17-0.02-0.34,0.1-0.39,0.27c-0.05,0.2,0.06,0.4,0.26,0.46c0.2,0.05,0.4-0.06,0.46-0.26c0.05-0.17-0.04-0.36-0.2-0.43
						l1.32-4.73L184.39,18.69z M180.92,25.09c-0.04,0.13-0.17,0.2-0.3,0.17c-0.13-0.04-0.2-0.17-0.17-0.3
						c0.03-0.11,0.13-0.18,0.23-0.17c0.02,0,0.04,0,0.06,0.01c0.02,0.01,0.04,0.02,0.06,0.03C180.9,24.87,180.94,24.98,180.92,25.09
						z"/>
					<path class="st2" d="M186.88,15.5l-1.91-0.53l-3.87,2.18l-0.8,2.88c-0.18-0.02-0.34,0.1-0.39,0.27
						c-0.05,0.2,0.06,0.4,0.26,0.46c0.2,0.05,0.4-0.06,0.46-0.26c0.05-0.18-0.04-0.36-0.2-0.43l0.79-2.83l3.77-2.13l1.91,0.53
						l1.61-0.91l1.44-5.2c0.17,0.02,0.34-0.09,0.39-0.27c0.05-0.2-0.06-0.4-0.26-0.46c-0.2-0.05-0.4,0.06-0.46,0.26
						c-0.05,0.18,0.04,0.36,0.2,0.43l-1.43,5.14L186.88,15.5z M180.5,20.47c-0.04,0.13-0.17,0.2-0.3,0.17
						c-0.13-0.04-0.2-0.17-0.17-0.3c0.03-0.11,0.12-0.18,0.23-0.18c0.02,0,0.04,0,0.07,0.01c0.02,0.01,0.04,0.01,0.06,0.03
						C180.48,20.25,180.53,20.36,180.5,20.47z M189.75,9.09c0.04-0.13,0.17-0.2,0.3-0.17c0.13,0.04,0.2,0.17,0.17,0.3
						c-0.03,0.11-0.13,0.18-0.23,0.17c-0.02,0-0.04,0-0.06-0.01c-0.02-0.01-0.04-0.02-0.06-0.03C189.77,9.31,189.72,9.2,189.75,9.09
						z"/>
					<polygon class="st2" points="157,14.96 159.72,5.14 171.29,-1.39 171.22,-1.5 159.61,5.06 156.88,14.87 137.59,25.77 
						126.98,22.82 126.95,22.95 137.61,25.91 					"/>
					<path class="st2" d="M159.68,11.63l7.35-4.15c0.04,0.04,0.09,0.07,0.14,0.09c0.16,0.05,0.33-0.05,0.38-0.21
						c0.05-0.16-0.05-0.33-0.21-0.38c-0.16-0.05-0.33,0.05-0.38,0.21c-0.02,0.06-0.01,0.12,0,0.17l-7.08,4l1.37-4.92l10.38-5.86
						l-0.06-0.11l-10.43,5.89L159.68,11.63z"/>
					<path class="st2" d="M173.2,8.99l5.45-3.08l5.39,1.5c0,0.14,0.08,0.27,0.22,0.3c0.16,0.05,0.33-0.05,0.38-0.21
						c0.05-0.16-0.05-0.33-0.21-0.38c-0.14-0.04-0.29,0.03-0.35,0.16l-5.44-1.51l-5.45,3.08l-2.41-0.67l8.81-4.98l-0.06-0.11
						l-9.09,5.13L173.2,8.99z"/>
					<path class="st2" d="M171.84,12.67c-0.04-0.04-0.08-0.07-0.14-0.08c-0.16-0.05-0.33,0.05-0.38,0.21
						c-0.05,0.16,0.05,0.33,0.21,0.38s0.33-0.05,0.38-0.21c0.02-0.06,0.01-0.13-0.01-0.18l5.7-3.22l6.87,1.91l3.31-1.87l1.01-3.64
						l-0.13-0.03l-1,3.59l-3.22,1.82l-6.87-1.91L171.84,12.67z"/>
					<path class="st2" d="M145.44,17.67c-0.14-0.01-0.27,0.08-0.31,0.22c-0.05,0.16,0.05,0.33,0.21,0.38
						c0.16,0.05,0.33-0.05,0.38-0.21c0.04-0.14-0.03-0.29-0.15-0.35l3.15-11.34l1.11,1.97l-0.92,3.32l-1.16,0.66l-0.76,2.72
						c-0.18-0.02-0.34,0.09-0.39,0.27c-0.05,0.2,0.06,0.4,0.26,0.46c0.2,0.05,0.4-0.06,0.46-0.26c0.05-0.18-0.04-0.35-0.2-0.43
						l0.74-2.67l1.16-0.66l0.95-3.42l-1.21-2.13l0.83-2.97l-2.71-4.8l-0.11,0.06l2.69,4.75L145.44,17.67z M147.19,15.47
						c-0.04,0.13-0.17,0.2-0.3,0.17c-0.13-0.04-0.2-0.17-0.17-0.3c0.03-0.11,0.13-0.18,0.23-0.18c0.02,0,0.04,0,0.06,0.01
						c0.02,0.01,0.04,0.02,0.06,0.03C147.17,15.25,147.22,15.36,147.19,15.47z"/>
					<path class="st2" d="M147.79,24.05l8.97,2.49c-0.01,0.14,0.08,0.27,0.22,0.31c0.16,0.05,0.33-0.05,0.38-0.21
						c0.05-0.16-0.05-0.33-0.21-0.38c-0.14-0.04-0.29,0.03-0.35,0.16l-9.02-2.51l-10.42,5.89l-11.43-3.18l-0.03,0.13l11.48,3.19
						L147.79,24.05z"/>
					<path class="st2" d="M165.62,20.94c-0.01,0.14,0.08,0.27,0.22,0.31c0.16,0.05,0.33-0.05,0.38-0.21
						c0.05-0.16-0.05-0.33-0.21-0.38c-0.14-0.04-0.29,0.03-0.35,0.15l-1.6-0.44l-5.4,3.05l-6.86-1.91l4.45-2.51
						c0.04,0.04,0.09,0.08,0.15,0.09c0.16,0.05,0.33-0.05,0.38-0.21c0.05-0.16-0.05-0.33-0.21-0.38c-0.16-0.05-0.33,0.05-0.38,0.21
						c-0.02,0.06-0.01,0.11,0,0.17l-4.72,2.67l7.21,2l5.4-3.05L165.62,20.94z"/>
					<path class="st2" d="M158.4,22.26l2.86-1.62l0,0c0.04,0.05,0.11,0.09,0.18,0.11c0.2,0.05,0.4-0.06,0.46-0.26
						c0.05-0.2-0.06-0.4-0.26-0.46c-0.2-0.05-0.4,0.06-0.46,0.26c-0.02,0.08-0.02,0.16,0.01,0.23l-2.81,1.59l-3.46-0.96l2.77-1.56
						c0.05,0.06,0.11,0.11,0.19,0.13c0.2,0.05,0.4-0.06,0.46-0.26c0.05-0.2-0.06-0.4-0.26-0.46c-0.2-0.05-0.4,0.06-0.46,0.26
						c-0.02,0.07-0.02,0.15,0,0.21l-3.05,1.72L158.4,22.26z M161.31,20.34c0.04-0.13,0.17-0.2,0.3-0.17c0.13,0.04,0.2,0.17,0.17,0.3
						c-0.04,0.13-0.17,0.2-0.3,0.17c-0.04-0.01-0.07-0.03-0.1-0.05c-0.03-0.03-0.06-0.07-0.07-0.11
						C161.3,20.43,161.3,20.38,161.31,20.34z M157.76,19.3c0.04-0.13,0.17-0.2,0.3-0.17c0.13,0.04,0.2,0.17,0.17,0.3
						c-0.04,0.13-0.17,0.2-0.3,0.17c-0.04-0.01-0.08-0.04-0.11-0.07c-0.03-0.03-0.05-0.07-0.06-0.12
						C157.74,19.38,157.75,19.34,157.76,19.3z"/>
					<path class="st2" d="M151.02,4.56l0.54-1.94l-1.49-2.64c0.04-0.04,0.07-0.09,0.09-0.15c0.05-0.16-0.05-0.33-0.21-0.38
						c-0.16-0.05-0.33,0.05-0.38,0.21c-0.05,0.16,0.05,0.33,0.21,0.38c0.06,0.02,0.12,0.01,0.17,0l1.47,2.59l-0.51,1.84l-0.87,0.49
						l0.59-2.12l-1.42-2.51c0.04-0.04,0.07-0.09,0.09-0.15c0.05-0.16-0.05-0.33-0.21-0.38c-0.16-0.05-0.33,0.05-0.38,0.21
						c-0.05,0.16,0.05,0.33,0.21,0.38c0.06,0.02,0.12,0.01,0.17,0l0,0l1.39,2.46l-0.75,2.69c-0.18-0.02-0.34,0.1-0.39,0.27
						c-0.05,0.2,0.06,0.4,0.26,0.46c0.2,0.05,0.4-0.06,0.46-0.26c0.05-0.18-0.04-0.36-0.2-0.43l0.12-0.45L151.02,4.56z M149.94,5.99
						c-0.04,0.13-0.17,0.2-0.3,0.17c-0.13-0.04-0.2-0.17-0.17-0.3c0.03-0.11,0.12-0.18,0.23-0.18c0.02,0,0.04,0,0.07,0.01
						c0.02,0.01,0.04,0.01,0.06,0.03C149.92,5.77,149.97,5.89,149.94,5.99z"/>
					<path class="st2" d="M194.14,22.04l3.64-13.08l-0.13-0.03l-3.62,13.03l-5.54,3.13l-1.56,5.62c-0.14-0.01-0.27,0.08-0.31,0.22
						c-0.05,0.16,0.05,0.33,0.21,0.38c0.16,0.05,0.33-0.05,0.38-0.21c0.04-0.14-0.03-0.29-0.15-0.35l1.55-5.57L194.14,22.04z"/>
					<path class="st2" d="M168.07,25.07c-0.2-0.05-0.4,0.06-0.46,0.26c-0.02,0.08-0.02,0.15,0.01,0.22l-9.63,5.84l-9.89-2.83
						l-10.51,5.94l-12.86-3.57l-0.03,0.13l12.91,3.59l10.51-5.94l9.89,2.83l9.68-5.87c0.05,0.06,0.11,0.1,0.18,0.12
						c0.2,0.05,0.4-0.06,0.46-0.26C168.38,25.33,168.27,25.12,168.07,25.07z M168.04,25.65c-0.04,0.01-0.09,0.02-0.14,0
						c-0.04-0.01-0.08-0.03-0.1-0.06l0,0c-0.04-0.04-0.06-0.08-0.07-0.14c0,0,0,0,0-0.01c-0.01-0.03,0-0.06,0.01-0.09
						c0.01-0.05,0.04-0.09,0.08-0.12c0.02-0.02,0.05-0.03,0.08-0.04c0.04-0.01,0.09-0.02,0.14,0c0.05,0.01,0.09,0.04,0.12,0.08
						c0.01,0.01,0.02,0.03,0.03,0.04c0.03,0.05,0.04,0.12,0.02,0.18C168.18,25.57,168.12,25.63,168.04,25.65z"/>
					<path class="st2" d="M176.93,16.29l1.85-1.04c0.04,0.04,0.09,0.08,0.15,0.09c0.16,0.05,0.33-0.05,0.38-0.21
						c0.05-0.16-0.05-0.33-0.21-0.38c-0.16-0.05-0.33,0.05-0.38,0.21c-0.02,0.06-0.01,0.12,0,0.17l-1.9,1.07l-1.63,5.87l-2.03,1.15
						l-4.69-1.3l-5.59,3.16c-0.04-0.04-0.09-0.07-0.15-0.09c-0.16-0.05-0.33,0.05-0.38,0.21c-0.05,0.16,0.05,0.33,0.21,0.38
						c0.16,0.05,0.33-0.05,0.38-0.21c0.02-0.06,0.01-0.12,0-0.17l5.54-3.13l4.69,1.3l2.12-1.2L176.93,16.29z"/>
					<path class="st2" d="M145.61,32.69l8.98,2.5c-0.03,0.16,0.06,0.31,0.22,0.36c0.16,0.05,0.33-0.05,0.38-0.21
						c0.05-0.16-0.05-0.33-0.21-0.38c-0.13-0.03-0.25,0.01-0.33,0.11l-9.05-2.52l-8.07,4.56l-13.47-3.74l-0.03,0.13l13.52,3.76
						L145.61,32.69z"/>
					<path class="st2" d="M149.35,31.11c0.02-0.18-0.1-0.34-0.27-0.39c-0.2-0.05-0.4,0.06-0.46,0.26c-0.05,0.2,0.06,0.4,0.26,0.46
						c0.17,0.05,0.36-0.04,0.43-0.2l11.06,3.08l-5.76,3.26l-2.72-0.76c0.02-0.18-0.1-0.34-0.27-0.39c-0.2-0.05-0.4,0.06-0.46,0.26
						c-0.05,0.2,0.06,0.4,0.26,0.46c0.17,0.05,0.36-0.04,0.43-0.2l2.78,0.77l6.08-3.44L149.35,31.11z M149.19,31.2
						c-0.05,0.09-0.16,0.14-0.27,0.11c-0.13-0.04-0.2-0.17-0.17-0.3c0.04-0.13,0.17-0.2,0.3-0.17c0.11,0.03,0.17,0.13,0.17,0.23
						c0,0.02,0,0.04-0.01,0.07C149.21,31.17,149.2,31.19,149.19,31.2z M151.73,36.9c-0.02,0.04-0.05,0.07-0.09,0.09
						C151.63,37,151.62,37,151.6,37c-0.03,0.01-0.07,0.02-0.1,0.01c-0.01,0-0.03,0-0.04-0.01l0,0c-0.13-0.04-0.2-0.17-0.17-0.3
						c0.02-0.06,0.06-0.11,0.11-0.14c0.01-0.01,0.03-0.01,0.04-0.02c0.04-0.01,0.09-0.02,0.14,0l0,0c0.02,0,0.03,0.01,0.04,0.02
						c0.01,0.01,0.03,0.02,0.04,0.03c0.01,0.01,0.02,0.02,0.03,0.03c0.01,0.01,0.02,0.02,0.02,0.03c0.01,0.03,0.02,0.05,0.03,0.08
						c0,0.01,0,0.03,0,0.04c0,0.02,0,0.04-0.01,0.06C151.75,36.86,151.74,36.89,151.73,36.9z"/>
					<path class="st2" d="M168.55,27.86l2.53,0.7c-0.02,0.17,0.09,0.34,0.27,0.39c0.2,0.05,0.4-0.06,0.46-0.26
						c0.05-0.2-0.06-0.4-0.26-0.46c-0.18-0.05-0.36,0.04-0.43,0.2l-2.58-0.72l-2.75,1.55l-0.47,1.71l-2.96,1.67l-1.53-0.49
						c0.01-0.14-0.08-0.27-0.22-0.31c-0.16-0.05-0.33,0.05-0.38,0.21c-0.05,0.16,0.05,0.33,0.21,0.38c0.14,0.04,0.29-0.03,0.35-0.15
						l1.58,0.5l5.19-2.93l1.64,0.46c-0.02,0.18,0.1,0.34,0.27,0.39c0.2,0.05,0.4-0.06,0.46-0.26c0.05-0.2-0.06-0.4-0.26-0.46
						c-0.18-0.05-0.36,0.04-0.43,0.2l-1.7-0.47l-2.07,1.17l0.43-1.53L168.55,27.86z M171.51,28.37c0.13,0.04,0.2,0.17,0.17,0.3
						c-0.04,0.13-0.17,0.2-0.3,0.17c-0.11-0.03-0.18-0.13-0.17-0.23c0-0.02,0-0.04,0.01-0.06s0.02-0.04,0.03-0.06
						C171.3,28.38,171.41,28.34,171.51,28.37z M169.63,30.12c0.13,0.04,0.2,0.17,0.17,0.3c-0.04,0.13-0.17,0.2-0.3,0.17
						c-0.11-0.03-0.18-0.12-0.18-0.23c0-0.02,0-0.04,0.01-0.07s0.01-0.04,0.03-0.06C169.42,30.14,169.53,30.09,169.63,30.12z"/>
					<path class="st2" d="M154.04,26.76c-0.02,0.18,0.09,0.34,0.27,0.39c0.2,0.05,0.4-0.06,0.46-0.26c0.05-0.2-0.06-0.4-0.26-0.46
						c-0.18-0.05-0.36,0.04-0.43,0.2l-6.13-1.73l-2.03,1.14c-0.04-0.04-0.09-0.07-0.15-0.09c-0.16-0.05-0.33,0.05-0.38,0.21
						s0.05,0.33,0.21,0.38s0.33-0.05,0.38-0.21c0.02-0.06,0.01-0.12,0-0.17l1.98-1.12L154.04,26.76z M154.48,26.57
						c0.13,0.04,0.2,0.17,0.17,0.3c-0.04,0.13-0.17,0.2-0.3,0.17c-0.11-0.03-0.17-0.12-0.17-0.23c0-0.02,0-0.04,0.01-0.07
						c0.01-0.02,0.01-0.04,0.03-0.06C154.26,26.58,154.37,26.54,154.48,26.57z"/>
					<path class="st2" d="M141.91,56.93l1.6-5.75l5.26-2.97c0.04,0.04,0.09,0.07,0.15,0.09c0.16,0.05,0.33-0.05,0.38-0.21
						c0.05-0.16-0.05-0.33-0.21-0.38c-0.16-0.05-0.33,0.05-0.38,0.21c-0.02,0.06-0.01,0.12,0,0.17l-5.3,3l-1.6,5.75l-7.45,4.21
						l-8-2.22l-0.03,0.13l8.05,2.24L141.91,56.93z"/>
					<path class="st2" d="M141.95,49.81l4.87-2.75c0.05,0.06,0.11,0.1,0.18,0.12c0.2,0.05,0.4-0.06,0.46-0.26
						c0.05-0.2-0.06-0.4-0.26-0.46c-0.2-0.05-0.4,0.06-0.46,0.26c-0.02,0.08-0.02,0.15,0.01,0.22l-4.91,2.78l-1.58,5.69l-3.57,2.02
						c-0.05-0.06-0.11-0.1-0.19-0.12c-0.2-0.05-0.4,0.06-0.46,0.26c-0.05,0.2,0.06,0.4,0.26,0.46c0.2,0.05,0.4-0.06,0.46-0.26
						c0.02-0.08,0.02-0.15-0.01-0.22l3.62-2.04L141.95,49.81z M146.87,46.76c0.04-0.13,0.17-0.2,0.3-0.17
						c0.13,0.04,0.2,0.17,0.17,0.3c-0.04,0.13-0.17,0.2-0.3,0.17c-0.04-0.01-0.08-0.03-0.1-0.06c-0.03-0.03-0.05-0.07-0.06-0.11
						C146.86,46.84,146.86,46.8,146.87,46.76z M136.64,57.72c-0.04,0.13-0.17,0.2-0.3,0.17c-0.13-0.04-0.2-0.17-0.17-0.3
						c0.04-0.13,0.17-0.2,0.3-0.17c0.04,0.01,0.08,0.03,0.1,0.06c0.03,0.03,0.05,0.07,0.06,0.11
						C136.65,57.64,136.65,57.68,136.64,57.72z"/>
					<path class="st2" d="M161.65,35.73c0.04,0.04,0.09,0.07,0.15,0.09c0.16,0.05,0.33-0.05,0.38-0.21
						c0.05-0.16-0.05-0.33-0.21-0.38c-0.16-0.05-0.33,0.05-0.38,0.21c-0.02,0.06-0.01,0.12,0,0.17l-5.2,2.94l-0.95,3.98
						c-0.18-0.02-0.34,0.09-0.39,0.27c-0.05,0.2,0.06,0.4,0.26,0.46c0.2,0.05,0.4-0.06,0.46-0.26c0.05-0.18-0.04-0.36-0.2-0.43
						l0.93-3.93L161.65,35.73z M155.63,42.97c-0.04,0.13-0.17,0.2-0.3,0.17c-0.13-0.04-0.2-0.17-0.17-0.3
						c0.03-0.11,0.12-0.17,0.23-0.17c0.02,0,0.04,0,0.07,0.01s0.04,0.01,0.06,0.03C155.62,42.75,155.66,42.86,155.63,42.97z"/>
					<path class="st2" d="M129.82,54.92l-0.03,0.13l5.13,1.43l3.97-2.24c0.05,0.06,0.11,0.1,0.18,0.12c0.2,0.05,0.4-0.06,0.46-0.26
						c0.05-0.2-0.06-0.4-0.26-0.46c-0.2-0.05-0.4,0.06-0.46,0.26c-0.02,0.08-0.02,0.15,0.01,0.22l-3.92,2.22L129.82,54.92z
						 M138.94,53.93c0.04-0.13,0.17-0.2,0.3-0.17c0.13,0.04,0.2,0.17,0.17,0.3c-0.04,0.13-0.17,0.2-0.3,0.17
						c-0.04-0.01-0.08-0.03-0.1-0.06c-0.03-0.03-0.06-0.07-0.06-0.11C138.93,54.01,138.93,53.97,138.94,53.93z"/>
					<path class="st2" d="M138.23,40.93l-3.3-0.92l-0.03,0.13l3.35,0.93l5.62-3.18l2.22,0.62c-0.01,0.14,0.08,0.27,0.22,0.31
						c0.16,0.05,0.33-0.05,0.38-0.21c0.05-0.16-0.05-0.33-0.21-0.38c-0.14-0.04-0.29,0.03-0.35,0.15l-2.27-0.63L138.23,40.93z"/>
					<path class="st2" d="M148.14,37.87l-2.62-0.91c0.02-0.18-0.09-0.34-0.27-0.39c-0.2-0.05-0.4,0.06-0.46,0.26
						c-0.05,0.2,0.06,0.4,0.26,0.46c0.18,0.05,0.36-0.04,0.43-0.2l2.56,0.9l1.18,2.09l-3.27,1.85c-0.05-0.05-0.1-0.09-0.17-0.11
						c-0.2-0.05-0.4,0.06-0.46,0.26c-0.05,0.2,0.06,0.4,0.26,0.46c0.2,0.05,0.4-0.06,0.46-0.26c0.02-0.08,0.02-0.17-0.01-0.24
						l3.38-1.91L148.14,37.87z M145.09,37.16c-0.13-0.04-0.2-0.17-0.17-0.3c0.04-0.13,0.17-0.2,0.3-0.17
						c0.11,0.03,0.17,0.12,0.17,0.23c0,0.02,0,0.04-0.01,0.07c-0.01,0.02-0.01,0.04-0.03,0.06
						C145.31,37.14,145.2,37.19,145.09,37.16z M145.93,42.24c-0.04,0.13-0.17,0.2-0.3,0.17c-0.13-0.04-0.2-0.17-0.17-0.3
						c0.04-0.13,0.17-0.2,0.3-0.17c0.03,0.01,0.06,0.02,0.09,0.05c0.04,0.03,0.06,0.07,0.07,0.11
						C145.94,42.15,145.94,42.19,145.93,42.24z"/>
					<path class="st2" d="M143.69,44.66l0.66-3.07l1.91-1.14c0.04,0.04,0.09,0.08,0.15,0.09c0.16,0.05,0.33-0.05,0.38-0.21
						s-0.05-0.33-0.21-0.38c-0.16-0.05-0.33,0.05-0.38,0.21c-0.02,0.06-0.01,0.12,0,0.17l0,0l-1.95,1.16l-0.66,3.07l-3.47,2
						l-0.83,1.78c-0.2-0.02-0.4,0.13-0.41,0.36c0,0.14,0.08,0.28,0.21,0.34c0.22,0.1,0.46-0.01,0.52-0.23
						c0.05-0.18-0.04-0.36-0.2-0.43l0.81-1.73L143.69,44.66z M139.48,48.79c-0.04,0.13-0.17,0.2-0.3,0.17
						c-0.13-0.04-0.2-0.17-0.17-0.3c0.03-0.11,0.13-0.18,0.23-0.17c0.02,0,0.04,0,0.06,0.01c0.02,0.01,0.04,0.02,0.06,0.03
						C139.46,48.58,139.51,48.69,139.48,48.79z"/>
					<path class="st2" d="M142.91,43.86l0.37-3.46l0.82-0.53c0.05,0.06,0.11,0.1,0.19,0.12c0.2,0.05,0.4-0.06,0.46-0.26
						c0.05-0.2-0.06-0.4-0.26-0.46c-0.2-0.05-0.4,0.06-0.46,0.26c-0.02,0.08-0.02,0.15,0.01,0.22l-0.86,0.56l-0.37,3.46l-3.85,2.17
						l-1.06,3.8c-0.18-0.02-0.34,0.09-0.39,0.27c-0.05,0.2,0.06,0.4,0.26,0.46c0.2,0.05,0.4-0.06,0.46-0.26
						c0.05-0.18-0.04-0.36-0.2-0.43l1.04-3.75L142.91,43.86z M144.14,39.56c0.04-0.13,0.17-0.2,0.3-0.17
						c0.13,0.04,0.2,0.17,0.17,0.3c-0.04,0.13-0.17,0.2-0.3,0.17c-0.04-0.01-0.08-0.03-0.11-0.06c-0.03-0.03-0.05-0.07-0.06-0.11
						C144.13,39.65,144.13,39.61,144.14,39.56z M138.09,50.18c-0.04,0.13-0.17,0.2-0.3,0.17s-0.2-0.17-0.17-0.3
						c0.03-0.11,0.13-0.18,0.23-0.17c0.02,0,0.04,0,0.06,0.01c0.02,0.01,0.04,0.02,0.06,0.03
						C138.07,49.97,138.12,50.07,138.09,50.18z"/>
					<path class="st2" d="M149.46-1.61c-0.14-0.01-0.27,0.08-0.31,0.22c-0.05,0.16,0.05,0.33,0.21,0.38
						c0.16,0.05,0.33-0.05,0.38-0.21c0.04-0.14-0.03-0.29-0.15-0.35l0.23-0.83L151-3.07l1.83,0.51c-0.02,0.18,0.1,0.34,0.27,0.39
						c0.2,0.05,0.4-0.06,0.46-0.26c0.05-0.2-0.06-0.4-0.26-0.46c-0.17-0.05-0.36,0.04-0.43,0.2l-1.88-0.52l-1.28,0.72L149.46-1.61z
						 M153.26-2.76c0.13,0.04,0.2,0.17,0.17,0.3c-0.04,0.13-0.17,0.2-0.3,0.17c-0.11-0.03-0.17-0.12-0.17-0.23
						c0-0.02,0-0.04,0.01-0.07c0.01-0.02,0.01-0.04,0.03-0.06C153.04-2.74,153.15-2.79,153.26-2.76z"/>
					<path class="st2" d="M155.21,46.87c-0.2-0.05-0.4,0.06-0.46,0.26c-0.02,0.08-0.02,0.15,0.01,0.22l-9.06,5.12l-1.62,5.81
						l-9.75,5.51l-8.68-2.41l-0.03,0.13l8.73,2.43l9.85-5.56l1.62-5.81l9.02-5.09c0.05,0.06,0.11,0.1,0.18,0.12
						c0.2,0.05,0.4-0.06,0.46-0.26C155.52,47.12,155.4,46.92,155.21,46.87z M155.04,47.45c-0.04-0.01-0.08-0.03-0.1-0.06
						c-0.03-0.03-0.06-0.07-0.06-0.11c-0.01-0.04-0.01-0.08,0-0.12c0.04-0.13,0.17-0.2,0.3-0.17c0.13,0.04,0.2,0.17,0.17,0.3
						C155.3,47.41,155.17,47.49,155.04,47.45z"/>
					<path class="st2" d="M158.84,16.92c-0.05,0.2,0.06,0.4,0.26,0.46c0.2,0.05,0.4-0.06,0.46-0.26c0.02-0.08,0.02-0.15-0.01-0.22
						l10.63-6c0.04,0.04,0.08,0.07,0.14,0.08c0.16,0.05,0.33-0.05,0.38-0.21c0.05-0.16-0.05-0.33-0.21-0.38
						c-0.16-0.05-0.33,0.05-0.38,0.21c-0.02,0.06-0.01,0.13,0.01,0.18l0,0l-10.62,6c-0.05-0.06-0.11-0.1-0.18-0.12
						C159.1,16.61,158.9,16.73,158.84,16.92z M159.43,16.96c0.01,0.04,0.01,0.08,0,0.12c-0.04,0.13-0.17,0.2-0.3,0.17
						c-0.13-0.04-0.2-0.17-0.17-0.3c0.04-0.13,0.17-0.2,0.3-0.17c0.04,0.01,0.08,0.03,0.1,0.06
						C159.4,16.88,159.42,16.92,159.43,16.96z"/>
					<path class="st2" d="M169.29,13.94c0.2,0.05,0.4-0.06,0.46-0.26c0.05-0.2-0.06-0.4-0.26-0.46c-0.2-0.05-0.4,0.06-0.46,0.26
						c-0.02,0.08-0.02,0.15,0.01,0.22l-8.08,4.56l5.38,1.5c-0.02,0.18,0.09,0.34,0.27,0.39c0.2,0.05,0.4-0.06,0.46-0.26
						c0.05-0.2-0.06-0.4-0.26-0.46c-0.18-0.05-0.36,0.04-0.43,0.2l-5.08-1.41l7.8-4.41C169.15,13.88,169.22,13.92,169.29,13.94z
						 M166.78,19.57c0.13,0.04,0.2,0.17,0.17,0.3c-0.04,0.13-0.17,0.2-0.3,0.17c-0.11-0.03-0.18-0.13-0.17-0.23
						c0-0.02,0-0.04,0.01-0.06s0.02-0.04,0.03-0.06C166.57,19.59,166.68,19.54,166.78,19.57z M169.16,13.52
						c0.04-0.13,0.17-0.2,0.3-0.17c0.13,0.04,0.2,0.17,0.17,0.3c-0.04,0.13-0.17,0.2-0.3,0.17c-0.04-0.01-0.08-0.03-0.11-0.06
						c-0.03-0.03-0.05-0.07-0.06-0.11C169.15,13.6,169.15,13.56,169.16,13.52z"/>
					<path class="st2" d="M186.95,11.91c-0.02,0.08-0.02,0.15,0.01,0.22l-3.1,1.75l-6.21-1.73l-6.33,3.57
						c-0.04-0.04-0.09-0.07-0.14-0.09c-0.16-0.05-0.33,0.05-0.38,0.21c-0.05,0.16,0.05,0.33,0.21,0.38
						c0.16,0.05,0.33-0.05,0.38-0.21c0.02-0.06,0.01-0.12,0-0.17l6.28-3.55l6.21,1.73l3.15-1.78c0.05,0.05,0.11,0.1,0.19,0.12
						c0.2,0.05,0.4-0.06,0.46-0.26c0.05-0.2-0.06-0.4-0.26-0.46C187.21,11.6,187,11.72,186.95,11.91z M187.37,11.78
						c0.13,0.04,0.2,0.17,0.17,0.3c-0.04,0.13-0.17,0.2-0.3,0.17c-0.04-0.01-0.08-0.03-0.11-0.06c-0.03-0.03-0.05-0.07-0.06-0.11
						c-0.01-0.04-0.01-0.08,0-0.12C187.11,11.82,187.24,11.75,187.37,11.78z"/>
					<path class="st2" d="M184.31,33.55l1.45-5.2l-0.8-1.42l1.09-3.92l1.37-0.77l0.19-0.68l3.62-2.05c0.05,0.06,0.11,0.1,0.18,0.12
						c0.2,0.05,0.4-0.06,0.46-0.26c0.05-0.2-0.06-0.4-0.26-0.46c-0.2-0.05-0.4,0.06-0.46,0.26c-0.02,0.08-0.02,0.15,0.01,0.22
						l-1,0.57l0.4-1.45l2.32-1.31l1.26-4.54l-0.66-1.16l1.08-3.9l-0.13-0.03l-2.46,8.85l-6.63,3.75l-3.33,11.96
						c-0.18-0.02-0.34,0.1-0.39,0.27c-0.05,0.2,0.06,0.4,0.26,0.46c0.2,0.05,0.4-0.06,0.46-0.26c0.05-0.18-0.04-0.36-0.2-0.43
						l3.31-11.91l6.63-3.75l1.34-4.82l0.57,1l-1.23,4.44l-2.32,1.31L190,20.05l0,0l-2.51,1.41l-0.19,0.68l-1.21,0.69l0.53-1.89
						l1.87-1.06c0.05,0.06,0.11,0.1,0.18,0.12c0.2,0.05,0.4-0.06,0.46-0.26c0.05-0.2-0.06-0.4-0.26-0.46
						c-0.2-0.05-0.4,0.06-0.46,0.26c-0.02,0.08-0.02,0.15,0.01,0.22l-1.92,1.08l-1.69,6.1l0.8,1.42l-1.43,5.15
						c-0.18-0.02-0.35,0.09-0.39,0.27c-0.05,0.2,0.06,0.4,0.26,0.46c0.2,0.05,0.4-0.06,0.46-0.26
						C184.56,33.81,184.47,33.63,184.31,33.55z M191.28,19.2c0.04-0.13,0.17-0.2,0.3-0.17c0.13,0.04,0.2,0.17,0.17,0.3
						c-0.04,0.13-0.17,0.2-0.3,0.17c-0.04-0.01-0.08-0.03-0.1-0.06c-0.03-0.03-0.05-0.07-0.06-0.11
						C191.27,19.29,191.27,19.24,191.28,19.2z M182.22,32.56c-0.04,0.13-0.17,0.2-0.3,0.17c-0.13-0.04-0.2-0.17-0.17-0.3
						c0.03-0.11,0.12-0.18,0.23-0.18c0.02,0,0.04,0,0.07,0.01c0.02,0.01,0.04,0.01,0.06,0.03
						C182.21,32.34,182.25,32.45,182.22,32.56z M188.55,19.58c0.04-0.13,0.17-0.2,0.3-0.17c0.13,0.04,0.2,0.17,0.17,0.3
						c-0.04,0.13-0.17,0.2-0.3,0.17c-0.04-0.01-0.08-0.03-0.1-0.06c-0.03-0.03-0.05-0.07-0.06-0.11
						C188.54,19.66,188.54,19.62,188.55,19.58z M184.09,34.11c-0.13-0.04-0.2-0.17-0.17-0.3c0.03-0.11,0.13-0.18,0.23-0.18
						c0.02,0,0.04,0,0.06,0.01c0.02,0.01,0.04,0.02,0.06,0.03c0.09,0.05,0.13,0.16,0.1,0.27C184.35,34.07,184.21,34.15,184.09,34.11
						z"/>
					<path class="st2" d="M182.72,35.67l1.71-6.15l-0.36-0.63c0.04-0.04,0.07-0.09,0.09-0.15c0.05-0.16-0.05-0.33-0.21-0.38
						c-0.16-0.05-0.33,0.05-0.38,0.21c-0.05,0.16,0.05,0.33,0.21,0.38c0.06,0.02,0.12,0.01,0.17,0l0,0l0.33,0.58l-1.7,6.1
						c-0.18-0.02-0.34,0.1-0.39,0.27c-0.05,0.2,0.06,0.4,0.26,0.46c0.2,0.05,0.4-0.06,0.46-0.26
						C182.97,35.93,182.88,35.75,182.72,35.67z M182.5,36.24c-0.13-0.04-0.2-0.17-0.17-0.3c0.03-0.11,0.12-0.17,0.23-0.17
						c0.02,0,0.04,0,0.07,0.01c0.02,0.01,0.04,0.01,0.06,0.03c0.09,0.05,0.14,0.16,0.11,0.27C182.76,36.2,182.62,36.28,182.5,36.24z
						"/>
					<path class="st2" d="M154.52,11.85c0.2,0.05,0.4-0.06,0.46-0.26c0.05-0.17-0.04-0.36-0.2-0.43l4.28-15.39l-0.13-0.03
						l-4.28,15.39c-0.18-0.02-0.34,0.1-0.39,0.27C154.21,11.59,154.33,11.8,154.52,11.85z M154.62,11.25c0.02,0,0.04,0,0.06,0.01
						s0.04,0.02,0.06,0.03c0.09,0.05,0.14,0.16,0.11,0.27c-0.04,0.13-0.17,0.2-0.3,0.17c-0.13-0.04-0.2-0.17-0.17-0.3
						C154.42,11.32,154.52,11.25,154.62,11.25z"/>
					<path class="st2" d="M155.82-0.35l-0.93,3.34l0.85,1.5l-1.22,4.38l-1.01,0.57l-1.82,6.56c-0.18-0.02-0.34,0.1-0.39,0.27
						c-0.05,0.2,0.06,0.4,0.26,0.46c0.2,0.05,0.4-0.06,0.46-0.26c0.05-0.18-0.04-0.36-0.2-0.43l1.81-6.51l1.01-0.57l1.25-4.48
						l-0.85-1.5l0.91-3.28c0.17,0.02,0.34-0.09,0.39-0.27c0.05-0.2-0.06-0.4-0.26-0.46c-0.2-0.05-0.4,0.06-0.46,0.26
						C155.58-0.6,155.66-0.42,155.82-0.35z M151.88,16.43c-0.04,0.13-0.17,0.2-0.3,0.17c-0.13-0.04-0.2-0.17-0.17-0.3
						c0.03-0.11,0.12-0.18,0.23-0.18c0.02,0,0.04,0,0.07,0.01s0.04,0.01,0.06,0.03C151.87,16.21,151.91,16.32,151.88,16.43z
						 M156.05-0.91c0.13,0.04,0.2,0.17,0.17,0.3c-0.03,0.11-0.13,0.18-0.23,0.17c-0.02,0-0.04,0-0.06-0.01
						c-0.02-0.01-0.04-0.02-0.06-0.03c-0.09-0.05-0.14-0.16-0.11-0.27C155.79-0.87,155.92-0.95,156.05-0.91z"/>
					<path class="st2" d="M148.78-1.44c0.16,0.04,0.33-0.05,0.37-0.21c0.04-0.14-0.03-0.28-0.15-0.35l0.21-0.76l1.11-0.63
						c0.04,0.04,0.09,0.07,0.15,0.09c0.16,0.04,0.33-0.05,0.37-0.21c0.04-0.16-0.05-0.33-0.21-0.37c-0.16-0.04-0.33,0.05-0.37,0.21
						c-0.02,0.06-0.02,0.11,0,0.16l-1.16,0.66l-0.23,0.81c-0.14-0.01-0.27,0.08-0.3,0.22C148.53-1.65,148.62-1.48,148.78-1.44z
						 M150.36-3.64c0.03-0.1,0.14-0.16,0.24-0.13c0.1,0.03,0.16,0.14,0.14,0.24c-0.03,0.1-0.14,0.16-0.24,0.14
						c-0.03-0.01-0.06-0.02-0.08-0.04c-0.03-0.03-0.06-0.07-0.06-0.11C150.35-3.58,150.35-3.61,150.36-3.64z M148.84-1.92
						c0.02,0,0.05,0,0.07,0.01c0.02,0.01,0.04,0.01,0.06,0.03c0.07,0.04,0.1,0.13,0.08,0.21c-0.03,0.1-0.14,0.16-0.24,0.14
						c-0.1-0.03-0.16-0.14-0.14-0.24C148.69-1.86,148.77-1.92,148.84-1.92z"/>
					<path class="st2" d="M175.22,4.16c-0.18-0.05-0.36,0.04-0.43,0.2l-4.53-1.26l-5.45,3.08c-0.05-0.06-0.11-0.1-0.18-0.12
						c-0.2-0.05-0.4,0.06-0.46,0.26c-0.05,0.2,0.06,0.4,0.26,0.46c0.2,0.05,0.4-0.06,0.46-0.26c0.02-0.08,0.02-0.15-0.01-0.22
						l5.4-3.05l4.47,1.24c-0.02,0.17,0.09,0.34,0.27,0.39c0.2,0.05,0.4-0.06,0.46-0.26C175.54,4.42,175.42,4.21,175.22,4.16z
						 M164.76,6.47c-0.04,0.13-0.17,0.2-0.3,0.17c-0.13-0.04-0.2-0.17-0.17-0.3c0.04-0.13,0.17-0.2,0.3-0.17
						c0.04,0.01,0.08,0.03,0.1,0.06c0.03,0.03,0.06,0.07,0.06,0.11C164.77,6.39,164.77,6.43,164.76,6.47z M175.06,4.74
						c-0.11-0.03-0.18-0.13-0.17-0.23c0-0.02,0-0.04,0.01-0.06c0.01-0.02,0.02-0.04,0.03-0.06c0.05-0.09,0.16-0.14,0.27-0.11
						c0.13,0.04,0.2,0.17,0.17,0.3C175.32,4.71,175.19,4.78,175.06,4.74z"/>
					<path class="st2" d="M160.72,13.38c-0.2-0.05-0.4,0.06-0.46,0.26c-0.05,0.2,0.06,0.4,0.26,0.46c0.2,0.05,0.4-0.06,0.46-0.26
						c0.02-0.08,0.02-0.15-0.01-0.22l7.42-4.19l0,0c0.05,0.06,0.11,0.1,0.19,0.12c0.2,0.05,0.4-0.06,0.46-0.26
						c0.05-0.2-0.06-0.4-0.26-0.46c-0.2-0.05-0.4,0.06-0.46,0.26c-0.02,0.08-0.02,0.15,0.01,0.22l-7.42,4.2
						C160.86,13.44,160.8,13.4,160.72,13.38z M168.45,9.12c0.04-0.13,0.17-0.2,0.3-0.17c0.13,0.04,0.2,0.17,0.17,0.3
						s-0.17,0.2-0.3,0.17c-0.04-0.01-0.08-0.03-0.1-0.06c-0.03-0.03-0.06-0.07-0.06-0.11C168.44,9.2,168.44,9.16,168.45,9.12z
						 M160.86,13.8c-0.04,0.13-0.17,0.2-0.3,0.17c-0.13-0.04-0.2-0.17-0.17-0.3c0.04-0.13,0.17-0.2,0.3-0.17
						c0.04,0.01,0.08,0.03,0.1,0.06c0.03,0.03,0.05,0.07,0.06,0.11C160.87,13.72,160.87,13.76,160.86,13.8z"/>
					<path class="st2" d="M180.31,34.36l1.26-4.53l-0.86-1.52l0.38-1.36c0.17,0.01,0.34-0.1,0.39-0.27c0.05-0.2-0.06-0.4-0.26-0.46
						c-0.2-0.05-0.4,0.06-0.46,0.26c-0.05,0.18,0.04,0.36,0.2,0.43l-0.4,1.41l0.86,1.52l-0.39,1.42l-1.49-2.63l0.78-2.82l-1.01-1.79
						l0.47-1.69c0.17,0.02,0.34-0.09,0.39-0.27c0.05-0.2-0.06-0.4-0.26-0.46c-0.2-0.05-0.4,0.06-0.46,0.26
						c-0.05,0.18,0.04,0.36,0.2,0.43l-0.48,1.74l1.01,1.79l-0.78,2.82l1.58,2.79l-0.8,2.88c-0.14-0.01-0.27,0.08-0.31,0.22
						c-0.05,0.16,0.05,0.33,0.21,0.38c0.16,0.05,0.33-0.05,0.38-0.21C180.5,34.57,180.44,34.43,180.31,34.36z M180.9,26.53
						c0.04-0.13,0.17-0.2,0.3-0.17c0.13,0.04,0.2,0.17,0.17,0.3c-0.03,0.1-0.12,0.17-0.22,0.17c-0.02,0-0.05,0-0.07-0.01
						c-0.02-0.01-0.04-0.01-0.06-0.02C180.91,26.74,180.87,26.63,180.9,26.53z M179.6,21.91c0.04-0.13,0.17-0.2,0.3-0.17
						c0.13,0.04,0.2,0.17,0.17,0.3c-0.03,0.11-0.13,0.18-0.23,0.17c-0.02,0-0.04,0-0.06-0.01s-0.04-0.02-0.06-0.03
						C179.61,22.12,179.57,22.01,179.6,21.91z"/>
					<path class="st2" d="M174.9,36.91l1.11-3.99l-2.36-4.17l0.77-2.77c0.18,0.02,0.34-0.1,0.39-0.27c0.05-0.2-0.06-0.4-0.26-0.46
						c-0.2-0.05-0.4,0.06-0.46,0.26c-0.05,0.17,0.04,0.36,0.2,0.43l-0.78,2.82l2.36,4.17l-1.1,3.94c-0.14-0.01-0.27,0.08-0.31,0.22
						c-0.05,0.16,0.05,0.33,0.21,0.38c0.16,0.05,0.33-0.05,0.38-0.21C175.1,37.12,175.03,36.98,174.9,36.91z M174.23,25.55
						c0.04-0.13,0.17-0.2,0.3-0.17c0.13,0.04,0.2,0.17,0.17,0.3c-0.03,0.11-0.13,0.18-0.23,0.17c-0.02,0-0.04,0-0.06-0.01
						c-0.02-0.01-0.04-0.02-0.06-0.03C174.25,25.76,174.2,25.65,174.23,25.55z"/>
					<path class="st2" d="M175.33,3.76c0.16,0.05,0.33-0.05,0.38-0.21c0.05-0.16-0.05-0.33-0.21-0.38
						c-0.14-0.04-0.29,0.03-0.35,0.15l-3.44-0.96l1.62-0.91l-0.06-0.11l-1.89,1.07l3.74,1.04C175.1,3.59,175.19,3.72,175.33,3.76z"
						/>
					<path class="st2" d="M182.72,25.86l1.6-5.96l6.5-3.67l1.17-4.19c0.14,0.01,0.27-0.08,0.31-0.22c0.05-0.16-0.05-0.33-0.21-0.38
						c-0.16-0.05-0.33,0.05-0.38,0.21c-0.04,0.14,0.03,0.29,0.15,0.35l-1.15,4.14l-6.5,3.67l-1.62,6.01
						c-0.14-0.01-0.27,0.08-0.31,0.22c-0.05,0.16,0.05,0.33,0.21,0.38c0.16,0.05,0.33-0.05,0.38-0.21
						C182.92,26.07,182.85,25.92,182.72,25.86z"/>
					<path class="st2" d="M149.76,15.54c0.16,0.05,0.33-0.05,0.38-0.21c0.04-0.13-0.02-0.27-0.13-0.34l5.61-20.18l-0.13-0.03
						l-5.61,20.17c-0.15-0.02-0.29,0.07-0.33,0.22C149.51,15.33,149.6,15.5,149.76,15.54z"/>
					<path class="st2" d="M152.29,27.8c0.14,0.04,0.29-0.03,0.35-0.15l4.37,1.17l4.51-2.55l-8.3-2.31c0.02-0.18-0.1-0.34-0.27-0.39
						c-0.2-0.05-0.4,0.06-0.46,0.26c-0.05,0.2,0.06,0.4,0.26,0.46c0.18,0.05,0.36-0.04,0.43-0.2l7.99,2.22l-4.19,2.37l-4.31-1.16
						c0.01-0.14-0.08-0.27-0.22-0.31c-0.16-0.05-0.33,0.05-0.38,0.21C152.03,27.59,152.12,27.76,152.29,27.8z M152.78,24.17
						c-0.13-0.04-0.2-0.17-0.17-0.3c0.04-0.13,0.17-0.2,0.3-0.17c0.11,0.03,0.18,0.12,0.18,0.23c0,0.02,0,0.04-0.01,0.07
						s-0.01,0.04-0.03,0.06C153,24.15,152.89,24.2,152.78,24.17z"/>
					<path class="st2" d="M151.56,41.22c0.16,0.05,0.33-0.05,0.38-0.21c0.05-0.16-0.05-0.33-0.21-0.38
						c-0.16-0.05-0.33,0.05-0.38,0.21c-0.01,0.05-0.01,0.09-0.01,0.14l-10.97,6.19l-0.84,3.03l-4.12,2.33l-4.81-1.34l-0.03,0.13
						l4.86,1.35l4.22-2.38l0.84-3.03l10.91-6.16C151.44,41.15,151.49,41.2,151.56,41.22z"/>
					<path class="st2" d="M169.76,35.68c-0.14-0.04-0.29,0.03-0.35,0.15l-3.81-1.34l-1.81,1.02c-0.05-0.06-0.11-0.1-0.19-0.12
						c-0.2-0.05-0.4,0.06-0.46,0.26s0.06,0.4,0.26,0.46c0.2,0.05,0.4-0.06,0.46-0.26c0.02-0.08,0.02-0.15-0.01-0.22l1.76-1
						l3.76,1.33c-0.01,0.14,0.08,0.27,0.22,0.31c0.16,0.05,0.33-0.05,0.38-0.21C170.01,35.9,169.92,35.73,169.76,35.68z
						 M163.73,35.81c-0.04,0.13-0.17,0.2-0.3,0.17c-0.13-0.04-0.2-0.17-0.17-0.3s0.17-0.2,0.3-0.17c0.04,0.01,0.08,0.03,0.1,0.06
						c0.03,0.03,0.05,0.07,0.06,0.11C163.74,35.73,163.74,35.77,163.73,35.81z"/>
					<path class="st2" d="M153.94,40.28c0.2,0.05,0.4-0.06,0.46-0.26c0.05-0.2-0.06-0.4-0.26-0.46c-0.17-0.05-0.35,0.03-0.43,0.19
						l-3.69-1.03L148.47,36l-2.7-0.75l-7.83,4.42l-2.72-0.76l-0.03,0.13l2.77,0.77l7.83-4.42l2.59,0.72l1.54,2.73l3.74,1.04
						C153.65,40.06,153.76,40.23,153.94,40.28z M154.1,39.69c0.13,0.04,0.2,0.17,0.17,0.3c-0.04,0.13-0.17,0.2-0.3,0.17
						c-0.11-0.03-0.18-0.13-0.17-0.24c0-0.02,0-0.04,0.01-0.06c0.01-0.03,0.02-0.05,0.03-0.07C153.89,39.71,154,39.66,154.1,39.69z"
						/>
					<path class="st2" d="M172.57,32.42c-0.18-0.05-0.36,0.04-0.43,0.2l-4.61-1.28l-2.98,1.68c-0.05-0.06-0.11-0.1-0.19-0.12
						c-0.2-0.05-0.4,0.06-0.46,0.26c-0.05,0.2,0.06,0.4,0.26,0.46c0.2,0.05,0.4-0.06,0.46-0.26c0.02-0.08,0.02-0.15-0.01-0.22
						l2.93-1.66l4.56,1.27c-0.02,0.17,0.09,0.34,0.27,0.39c0.2,0.05,0.4-0.06,0.46-0.26C172.88,32.68,172.77,32.47,172.57,32.42z
						 M164.5,33.32c-0.04,0.13-0.17,0.2-0.3,0.17c-0.13-0.04-0.2-0.17-0.17-0.3c0.04-0.13,0.17-0.2,0.3-0.17
						c0.04,0.01,0.08,0.03,0.1,0.06c0.03,0.03,0.05,0.07,0.06,0.11C164.51,33.24,164.51,33.28,164.5,33.32z M172.41,33.01
						c-0.11-0.03-0.18-0.13-0.17-0.23c0-0.02,0-0.04,0.01-0.06c0.01-0.02,0.02-0.04,0.03-0.06c0.05-0.09,0.16-0.14,0.27-0.11
						c0.13,0.04,0.2,0.17,0.17,0.3C172.67,32.97,172.53,33.04,172.41,33.01z"/>
					<path class="st2" d="M168.47,36.53c-0.17-0.05-0.36,0.04-0.43,0.2l-1.4-0.39l-3.24,2.43l-2.25-0.83l1.39-0.79
						c0.04,0.04,0.09,0.07,0.15,0.09c0.16,0.05,0.33-0.05,0.38-0.21c0.05-0.16-0.05-0.33-0.21-0.38c-0.16-0.05-0.33,0.05-0.38,0.21
						c-0.02,0.06-0.01,0.12,0,0.17l-4.33,2.44L157,43.65l-4.66,2.64l0.65-2.15c0.18,0.02,0.34-0.1,0.39-0.27
						c0.05-0.2-0.06-0.4-0.26-0.46c-0.2-0.05-0.4,0.06-0.46,0.26c-0.05,0.17,0.04,0.36,0.2,0.43l-0.74,2.45l4.99-2.82l1.16-4.17
						l2.73-1.54l2.43,0.88l3.24-2.43l1.35,0.37c-0.02,0.18,0.1,0.34,0.27,0.39c0.2,0.05,0.4-0.06,0.46-0.26
						C168.78,36.79,168.67,36.59,168.47,36.53z M152.79,43.71c0.04-0.13,0.17-0.2,0.3-0.17c0.13,0.04,0.2,0.17,0.17,0.3
						c-0.03,0.11-0.13,0.17-0.23,0.17c-0.02,0-0.04,0-0.07-0.01c-0.02-0.01-0.04-0.01-0.06-0.03
						C152.81,43.92,152.76,43.81,152.79,43.71z M168.31,37.12c-0.11-0.03-0.17-0.12-0.17-0.23c0-0.02,0-0.04,0.01-0.07
						c0.01-0.02,0.01-0.04,0.03-0.06c0.05-0.09,0.16-0.14,0.27-0.11c0.13,0.04,0.2,0.17,0.17,0.3
						C168.57,37.08,168.44,37.16,168.31,37.12z"/>
					<path class="st2" d="M177.28,35.11l0.64-2.3l-2.28-4.03l3.08-11.09c0.18,0.02,0.34-0.1,0.39-0.27c0.05-0.2-0.06-0.4-0.26-0.46
						c-0.2-0.05-0.4,0.06-0.46,0.26c-0.05,0.18,0.04,0.36,0.19,0.43l-3.1,11.14l2.28,4.03l-0.62,2.25
						c-0.18-0.02-0.34,0.09-0.39,0.27c-0.05,0.2,0.06,0.4,0.26,0.46c0.2,0.05,0.4-0.06,0.46-0.26
						C177.52,35.37,177.44,35.19,177.28,35.11z M178.53,17.26c0.04-0.13,0.17-0.2,0.3-0.17c0.13,0.04,0.2,0.17,0.17,0.3
						c-0.03,0.11-0.13,0.18-0.23,0.18c-0.02,0-0.04,0-0.06-0.01c-0.02-0.01-0.04-0.02-0.06-0.03
						C178.54,17.48,178.5,17.37,178.53,17.26z M177.05,35.68c-0.13-0.04-0.2-0.17-0.17-0.3c0.03-0.11,0.13-0.18,0.23-0.17
						c0.02,0,0.04,0,0.06,0.01s0.04,0.02,0.06,0.03c0.09,0.05,0.14,0.16,0.11,0.27C177.31,35.64,177.18,35.71,177.05,35.68z"/>
				</g>
			</g>
		</g>
	</g>
	<path class="st3" d="M140.94,48.46c0.27,0.43,0.08,0.82,0,1.21c-0.39,1.96-0.62,3.92-0.39,5.92c0.1,0.87,0.32,1.7,0.49,2.55
		c0,0,0.57,1.75,1.73,3.24c2.19,2.59,5.05,4.1,8.23,5.08c0.38,0.12,0.34-0.15,0.41-0.33c0.08-0.2,0.2-0.4-0.16-0.5
		c-0.35-0.09-0.74-0.14-1.02-0.4c-0.68-0.63-1.28-1.34-1.71-2.15c-0.65-1.2-0.85-2.52-0.73-3.88c0.19-2.19,0.94-4.19,1.97-6.11
		c1.4-2.6,3.21-4.9,5.35-6.91c2.43-2.28,5.11-4.26,7.97-5.99c0.41-0.25,0.87-0.51,1.14-0.97c-0.33-0.13-0.59-0.03-0.86,0.1
		c-1.74,0.82-3.35,1.85-5,2.82c-0.6,0.35-1.19,0.73-1.76,1.13c-1.32,0.95-2.75,1.6-4.37,1.83c-0.48,0.07-0.29,0.19-0.83,0.16
		c-4.41-2.32-8.94,1.46-9.78,2.28c-0.12,0.11-0.18,0.18-0.18,0.18"/>
	<g>
		<path class="st4" d="M144.51,45.56c1.42-0.74,2.89-1.19,4.53-0.97c0.41,0.05,0.82-0.04,1.17-0.41c0.58-0.61,1.26-1.01,2.2-0.92
			c1.22,0.12,2.2-0.5,3.09-1.25c1.84-1.55,3.12-3.54,4.45-5.51c1.16-1.72,2.56-3.2,4.33-4.31c0.35-0.22,0.77-0.4,1-0.79
			c-0.36-0.07-0.62,0.11-0.9,0.25c-0.38,0.19-0.64,0.54-1,0.74c-1.59,0.9-2.71,2.28-3.81,3.68c-1.36,1.74-2.53,3.65-4.22,5.13
			c-0.87,0.76-1.83,1.21-3.02,0.92c0.59-0.86,1.57-1.35,2.14-2.29c-0.42-0.06-0.51,0.28-0.75,0.4c-1.23,0.6-2.39,0.39-3.55-0.2
			c-0.3-0.15-0.31-0.24-0.08-0.46c0.36-0.34,0.75-0.66,0.66-1.26c-0.04-0.25,0.24-0.37,0.46-0.4c0.2-0.02,0.37,0.06,0.49,0.28
			c0.22,0.37,0.07,0.59-0.18,0.85c-0.12,0.12-0.42,0.22-0.26,0.47c0.13,0.19,0.37,0.25,0.62,0.24c0.49-0.01,0.86-0.26,1.19-0.57
			c0.88-0.8,1.06-2.16,0.07-3.01c-0.28-0.24-0.87-0.28-0.85-0.63c0.02-0.33,0.44-0.63,0.69-0.94c0.07-0.08,0.14-0.16,0.22-0.23
			c0.95-0.95,2-1.76,3.12-2.51c1.34-0.88,2.66-1.79,4.08-2.55c0.46-0.24,0.82-0.61,1.3-0.82c0.19-0.08,0.32-0.32,0.47-0.5
			c0.06-0.07,0.1-0.16,0.05-0.25c-0.06-0.11-0.17-0.04-0.25-0.04c-0.42,0.03-0.78,0.26-1.1,0.49c-1.29,0.97-2.64,1.83-4.07,2.56
			c-0.12,0.06-0.24,0.11-0.34,0.19c-1.18,0.82-2.51,1.36-3.69,2.16c-0.16-0.19-0.09-0.28-0.07-0.36c0.38-1.67,1.28-3.02,2.51-4.18
			c0.41-0.38,0.89-0.71,1.13-1.32c-0.22,0.11-0.43,0.17-0.57,0.3c-1.08,1.03-2.06,2.13-2.82,3.42c-1.03,1.76-1.5,3.76-2.38,5.58
			c-0.42,0.86-0.86,1.7-1.55,2.39c-0.14,0.14-0.31,0.28-0.54,0.19c-0.23-0.09-0.16-0.32-0.16-0.48c0.01-0.83,0.51-1.43,0.98-2.05
			c0.18-0.24,0.46-0.41,0.55-0.78c-0.2,0.1-0.35,0.17-0.49,0.26c-0.07,0.05-0.12,0.13-0.19,0.19c-0.91,0.76-1.18,1.79-1.23,2.91
			c-0.04,0.79-0.12,1.55-0.5,2.27c-0.42,0.8-1.19,1.17-1.86,1.68c-0.81,0.61-1.45,1.35-1.77,2.32c-0.01,0.04-0.04,0.09-0.06,0.13v0
			l-0.27,0.51c0,0,0.34-0.18,0.52-0.28c0.03-0.01,0.05-0.03,0.08-0.04c0,0,0,0,0,0l0,0c0.03-0.02,0.05-0.03,0.08-0.04
			C144.28,45.68,144.4,45.62,144.51,45.56z"/>
		<path class="st4" d="M163.18,29.02c-1.08,0.51-2.11,1.11-3.07,1.82c-0.95,0.69-1.9,1.4-2.89,2.04c-0.82,0.53-1.58,1.19-2.58,1.41
			c-0.33,0.07-0.39,0.25-0.14,0.5c0.3,0.31,0.6,0.61,0.85,0.98c0.43,0.65,0.26,1.82,0.27,2.72c0.65-1.16,1.42-2.62,1.98-3.64
			c1.23-2.27,2.95-4.04,5.29-5.17c0.83-0.4,1.65-0.84,2.48-1.26C164.59,28.49,163.87,28.69,163.18,29.02z"/>
	</g>
	<path class="st3" d="M183.45,66.11v-7.13h-15.64v-4.19h13.87v-6.24c0,0-26.24-2.54-28.39,14.23c0,0-5.33-18.48,29.43-17.5v-4.41
		l9.18,14.56v10.67h9.67V56.02l10.04-18.2h-10.04l-4.65,9.42l-4.77-9.42h-14.93c0,0-20.44,1.59-26.31,21.41c0,0-1.71,5.3,3.18,6.87
		L183.45,66.11z"/>
	<polygon class="st3" points="210.97,37.82 210.97,66.11 234.66,66.11 234.66,58.5 219.96,58.5 219.96,54.61 233.33,54.61 
		233.33,48.65 219.84,48.65 219.84,45.74 234.66,45.74 234.66,37.82 	"/>
	<path class="st0" d="M145.7,46.21c0.58-0.34,1.17-0.26,1.74-0.25c0.72,0.02,1.46,0.06,2.1,0.47c0.15,0.1,0.31,0.22,0.25,0.38
		c-0.07,0.19-0.3,0.09-0.43,0.06c-1.09-0.22-2.17-0.13-3.25,0c-0.04,0-0.07,0.05-0.1,0.04c-0.26-0.02-0.6,0.09-0.72-0.24
		C145.16,46.3,145.58,46.34,145.7,46.21z"/>
	<path class="st3" d="M235.62,57.35l8.55-0.94c0.76,2.93,1.86,4.66,4.77,4.66c2.15,0,2.85-1.01,2.85-1.92
		c0-4.28-15.41-6.05-15.41-13.79c0-4.66,4.83-7.55,12.5-7.55c7.79,0,10.81,3.31,12.5,8.34l-8.72,1.35
		c-0.87-2.78-1.92-4.17-4.19-4.17c-1.51,0-2.38,0.64-2.38,1.65c0,4.02,15.41,5.98,15.41,13.83c0,4.47-5,7.59-12.62,7.59
		C239.57,66.41,236.78,62.35,235.62,57.35z"/>
	<g>
		<path class="st4" d="M154.52,76.99V71h1.59c0.45,0,0.79,0.02,1,0.07c0.22,0.05,0.4,0.12,0.55,0.23c0.19,0.14,0.35,0.32,0.45,0.54
			s0.16,0.46,0.16,0.73c0,0.32-0.08,0.59-0.23,0.8c-0.15,0.21-0.38,0.36-0.68,0.45c0.37,0.05,0.66,0.21,0.87,0.48s0.32,0.6,0.32,1
			c0,0.24-0.04,0.47-0.13,0.69c-0.09,0.22-0.22,0.4-0.38,0.56c-0.17,0.17-0.39,0.28-0.64,0.35c-0.26,0.07-0.68,0.1-1.29,0.1H154.52z
			 M155.52,73.53h0.39c0.49,0,0.83-0.06,1.03-0.19c0.2-0.13,0.3-0.34,0.3-0.64c0-0.33-0.09-0.56-0.28-0.69
			c-0.19-0.13-0.54-0.2-1.06-0.2h-0.39V73.53z M155.52,76.17h0.35c0.36,0,0.63-0.01,0.8-0.04c0.18-0.03,0.32-0.07,0.42-0.14
			c0.13-0.08,0.22-0.19,0.29-0.32c0.07-0.13,0.1-0.28,0.1-0.44c0-0.19-0.04-0.36-0.12-0.5c-0.08-0.14-0.2-0.25-0.36-0.33
			c-0.1-0.05-0.21-0.08-0.33-0.1c-0.12-0.02-0.29-0.03-0.5-0.03h-0.31h-0.35V76.17z"/>
		<path class="st4" d="M159.6,76.99V71h3.51v0.83h-2.49v1.5h2.49v0.86h-2.49v1.94h2.49v0.87H159.6z"/>
		<path class="st4" d="M172,72.45c-0.29-0.23-0.6-0.41-0.92-0.53c-0.32-0.12-0.66-0.18-1.02-0.18c-0.69,0-1.25,0.21-1.68,0.63
			c-0.43,0.42-0.65,0.96-0.65,1.63c0,0.65,0.21,1.18,0.63,1.6c0.42,0.42,0.95,0.63,1.59,0.63c0.37,0,0.73-0.06,1.06-0.19
			c0.34-0.13,0.66-0.32,0.97-0.57v1.1c-0.28,0.19-0.57,0.33-0.9,0.42c-0.32,0.09-0.68,0.14-1.05,0.14c-0.48,0-0.93-0.08-1.34-0.23
			c-0.41-0.15-0.77-0.37-1.08-0.66c-0.31-0.29-0.54-0.62-0.71-1.01s-0.25-0.8-0.25-1.24c0-0.44,0.08-0.85,0.25-1.24
			c0.16-0.39,0.4-0.73,0.72-1.02c0.31-0.29,0.67-0.52,1.08-0.67c0.4-0.15,0.84-0.23,1.31-0.23c0.37,0,0.72,0.05,1.06,0.15
			c0.34,0.1,0.66,0.26,0.98,0.46L172,72.45z"/>
		<path class="st4" d="M173.27,76.99V71h3.51v0.83h-2.49v1.5h2.49v0.86h-2.49v1.94h2.49v0.87H173.27z"/>
		<path class="st4" d="M177.95,76.99v-6.23l4,3.66c0.11,0.1,0.22,0.21,0.33,0.33c0.11,0.12,0.23,0.25,0.35,0.4V71h0.95v6.23
			l-4.08-3.73c-0.11-0.1-0.21-0.21-0.32-0.32c-0.1-0.11-0.2-0.23-0.29-0.35v4.17H177.95z"/>
		<path class="st4" d="M187.06,71.82v5.17h-1.02v-5.17h-1.67V71h4.36v0.83H187.06z"/>
		<path class="st4" d="M190.47,74.31v2.68h-0.96V71h1.43c0.42,0,0.74,0.03,0.97,0.08c0.23,0.05,0.43,0.14,0.59,0.26
			c0.2,0.14,0.35,0.33,0.45,0.56c0.11,0.23,0.16,0.48,0.16,0.75c0,0.48-0.12,0.86-0.37,1.13c-0.24,0.27-0.6,0.43-1.08,0.49
			l2.17,2.73h-1.16l-2.09-2.68H190.47z M190.54,73.55h0.18c0.54,0,0.9-0.06,1.08-0.18c0.18-0.12,0.27-0.33,0.27-0.64
			c0-0.33-0.1-0.56-0.29-0.7c-0.19-0.13-0.54-0.2-1.06-0.2h-0.18V73.55z"/>
		<path class="st4" d="M198.61,76.99l-0.71-1.54h-2.49l-0.73,1.54h-1.08l3.05-6.23l3.05,6.23H198.61z M195.78,74.63h1.76l-0.65-1.37
			c-0.04-0.09-0.08-0.19-0.12-0.3c-0.04-0.11-0.08-0.24-0.12-0.38c-0.03,0.13-0.07,0.25-0.11,0.37c-0.04,0.11-0.08,0.22-0.12,0.31
			L195.78,74.63z"/>
		<path class="st4" d="M200.28,76.99V71h1.02v5.12h2.29v0.87H200.28z"/>
		<path class="st4" d="M205.19,75.97l0.84,0.29l-1.12,2.19l-0.55-0.21L205.19,75.97z"/>
		<path class="st4" d="M209.54,75.79l0.82-0.36c0.08,0.27,0.22,0.47,0.43,0.61c0.21,0.14,0.47,0.21,0.79,0.21
			c0.3,0,0.55-0.08,0.72-0.24c0.18-0.16,0.27-0.38,0.27-0.65c0-0.35-0.31-0.67-0.92-0.94c-0.09-0.04-0.15-0.07-0.2-0.09
			c-0.69-0.32-1.16-0.61-1.39-0.87c-0.23-0.26-0.35-0.58-0.35-0.96c0-0.49,0.17-0.88,0.52-1.19c0.35-0.3,0.81-0.45,1.37-0.45
			c0.46,0,0.85,0.09,1.17,0.26c0.31,0.17,0.53,0.42,0.65,0.73l-0.8,0.39c-0.13-0.19-0.26-0.33-0.42-0.41
			c-0.15-0.09-0.32-0.13-0.52-0.13c-0.28,0-0.49,0.07-0.66,0.2c-0.16,0.14-0.24,0.32-0.24,0.55c0,0.36,0.36,0.7,1.07,1.01
			c0.05,0.02,0.1,0.04,0.13,0.06c0.62,0.27,1.05,0.54,1.28,0.8c0.23,0.26,0.35,0.59,0.35,0.98c0,0.57-0.19,1.02-0.56,1.35
			c-0.38,0.33-0.88,0.5-1.52,0.5c-0.54,0-0.98-0.12-1.32-0.35S209.65,76.23,209.54,75.79z"/>
		<path class="st4" d="M214.74,76.99V71h3.51v0.83h-2.49v1.5h2.49v0.86h-2.49v1.94h2.49v0.87H214.74z"/>
		<path class="st4" d="M219.42,76.99V71h3.51v0.83h-2.49v1.5h2.49v0.86h-2.49v1.94h2.49v0.87H219.42z"/>
		<path class="st4" d="M226.77,76.99V71h1.59c0.45,0,0.79,0.02,1,0.07c0.22,0.05,0.4,0.12,0.55,0.23c0.19,0.14,0.35,0.32,0.45,0.54
			s0.16,0.46,0.16,0.73c0,0.32-0.08,0.59-0.23,0.8c-0.15,0.21-0.38,0.36-0.68,0.45c0.37,0.05,0.66,0.21,0.87,0.48
			c0.21,0.26,0.32,0.6,0.32,1c0,0.24-0.04,0.47-0.13,0.69c-0.09,0.22-0.22,0.4-0.38,0.56c-0.17,0.17-0.39,0.28-0.64,0.35
			c-0.26,0.07-0.68,0.1-1.29,0.1H226.77z M227.77,73.53h0.39c0.49,0,0.83-0.06,1.03-0.19c0.2-0.13,0.3-0.34,0.3-0.64
			c0-0.33-0.09-0.56-0.28-0.69c-0.19-0.13-0.54-0.2-1.06-0.2h-0.39V73.53z M227.77,76.17h0.35c0.36,0,0.63-0.01,0.8-0.04
			c0.18-0.03,0.32-0.07,0.42-0.14c0.13-0.08,0.22-0.19,0.29-0.32c0.07-0.13,0.1-0.28,0.1-0.44c0-0.19-0.04-0.36-0.12-0.5
			c-0.08-0.14-0.2-0.25-0.36-0.33c-0.1-0.05-0.21-0.08-0.33-0.1c-0.12-0.02-0.29-0.03-0.5-0.03h-0.31h-0.35V76.17z"/>
		<path class="st4" d="M231.85,76.99V71h3.51v0.83h-2.49v1.5h2.49v0.86h-2.49v1.94h2.49v0.87H231.85z"/>
		<path class="st4" d="M237.89,76.99v-2.74L235.77,71h1.08l1.32,2.03c0.03,0.05,0.07,0.12,0.12,0.2c0.05,0.08,0.1,0.18,0.14,0.27
			c0.04-0.1,0.08-0.19,0.13-0.27c0.04-0.08,0.09-0.16,0.14-0.23l1.36-2.01h1.02l-2.17,3.25v2.74H237.89z"/>
		<path class="st4" d="M247.9,74c0,0.43-0.08,0.83-0.25,1.21c-0.17,0.38-0.41,0.72-0.73,1.02c-0.32,0.3-0.69,0.53-1.1,0.68
			c-0.41,0.16-0.83,0.24-1.28,0.24c-0.45,0-0.89-0.08-1.3-0.24c-0.41-0.16-0.78-0.39-1.09-0.68c-0.32-0.3-0.56-0.63-0.73-1.01
			c-0.17-0.38-0.25-0.78-0.25-1.21c0-0.43,0.08-0.83,0.25-1.21c0.17-0.38,0.41-0.72,0.73-1.02c0.32-0.3,0.69-0.52,1.09-0.68
			c0.41-0.16,0.84-0.23,1.29-0.23c0.45,0,0.88,0.08,1.29,0.23c0.41,0.16,0.77,0.38,1.09,0.68c0.32,0.3,0.57,0.64,0.73,1.03
			C247.82,73.18,247.9,73.58,247.9,74z M246.83,74c0-0.3-0.06-0.59-0.17-0.86c-0.12-0.27-0.28-0.52-0.5-0.73
			c-0.21-0.21-0.46-0.37-0.74-0.48c-0.28-0.11-0.57-0.17-0.88-0.17c-0.31,0-0.6,0.06-0.88,0.17s-0.53,0.27-0.75,0.49
			c-0.22,0.21-0.38,0.45-0.5,0.72c-0.11,0.27-0.17,0.56-0.17,0.87c0,0.3,0.06,0.59,0.17,0.86c0.11,0.27,0.28,0.51,0.5,0.72
			c0.22,0.21,0.47,0.38,0.74,0.49c0.28,0.11,0.57,0.17,0.89,0.17c0.31,0,0.6-0.06,0.88-0.17c0.28-0.11,0.53-0.27,0.75-0.49
			c0.22-0.21,0.38-0.46,0.5-0.73C246.78,74.59,246.83,74.3,246.83,74z"/>
		<path class="st4" d="M249.07,76.99v-6.23l4,3.66c0.11,0.1,0.22,0.21,0.33,0.33c0.11,0.12,0.23,0.25,0.35,0.4V71h0.95v6.23
			l-4.08-3.73c-0.11-0.1-0.21-0.21-0.32-0.32c-0.1-0.11-0.2-0.23-0.29-0.35v4.17H249.07z"/>
		<path class="st4" d="M256.15,76.99V71h1.38c0.9,0,1.53,0.04,1.89,0.13s0.69,0.23,0.96,0.43c0.36,0.26,0.64,0.6,0.83,1.02
			c0.19,0.41,0.28,0.89,0.28,1.42s-0.09,1-0.28,1.41c-0.19,0.41-0.46,0.75-0.83,1.02c-0.28,0.2-0.59,0.35-0.94,0.43
			c-0.35,0.09-0.9,0.13-1.64,0.13h-0.28H256.15z M257.17,76.11h0.86c0.47,0,0.83-0.03,1.06-0.09c0.24-0.06,0.44-0.16,0.62-0.3
			c0.24-0.19,0.42-0.43,0.54-0.72c0.12-0.29,0.18-0.62,0.18-1c0-0.38-0.06-0.72-0.18-1c-0.12-0.29-0.3-0.53-0.54-0.72
			c-0.18-0.14-0.39-0.24-0.64-0.3c-0.25-0.06-0.64-0.09-1.16-0.09h-0.37h-0.37V76.11z"/>
	</g>
	<g>
		<defs>
			<path id="SVGID_00000044864228056530755340000002846416587533808773_" d="M150.1,39.58c0,0,0.32-0.14,0.68-1.48
				c0,0,0.44-2.19,1.7-2.26c0,0-0.99-0.24,1.58-2.2c0,0,5.31,2.85,3.95,4.57s-5,4.21-6.24,4.42c-1.25,0.21-2.2-0.42-2.51-0.79
				c-0.32-0.37-0.26-2.35-0.11-2.25S150.1,39.58,150.1,39.58z"/>
		</defs>
		<clipPath id="SVGID_00000155853447681542858680000009751759905489291156_">
			<use xlink:href="#SVGID_00000044864228056530755340000002846416587533808773_"  style="overflow:visible;"/>
		</clipPath>
		<g style="clip-path:url(#SVGID_00000155853447681542858680000009751759905489291156_);">
			<g>
				<path class="st6" d="M153.57,37.49c-0.11,0.52-0.61,0.85-1.13,0.73c-0.51-0.11-0.84-0.62-0.72-1.14
					c0.11-0.52,0.61-0.85,1.13-0.73C153.36,36.47,153.68,36.98,153.57,37.49z"/>
			</g>
			<g>
				<polygon class="st7" points="152.11,37.22 150.39,36.61 152.21,36.78 151.41,35.11 152.58,36.54 153.18,34.79 153.02,36.63 
					154.66,35.83 153.26,37.01 154.98,37.62 153.16,37.45 153.96,39.12 152.79,37.69 152.19,39.44 152.35,37.6 150.71,38.4 				"/>
			</g>
			<g>
				<g>
					<defs>
						<path id="SVGID_00000046316020829341471840000002949994875687886733_" d="M155.75,38.02c-0.38,1.79-2.09,2.93-3.8,2.56
							c-1.72-0.38-2.8-2.13-2.42-3.92c0.38-1.79,2.09-2.94,3.8-2.56C155.05,34.47,156.13,36.23,155.75,38.02z"/>
					</defs>
					<clipPath id="SVGID_00000082330610314638918390000016997226693246494628_">
						<use xlink:href="#SVGID_00000046316020829341471840000002949994875687886733_"  style="overflow:visible;"/>
					</clipPath>
					<polygon style="clip-path:url(#SVGID_00000082330610314638918390000016997226693246494628_);fill:#E6B504;" points="
						150.22,33.41 156.44,34.78 155.05,41.26 148.84,39.89 					"/>
					
						<ellipse transform="matrix(0.1458 -0.9893 0.9893 0.1458 93.451 182.8998)" style="clip-path:url(#SVGID_00000082330610314638918390000016997226693246494628_);fill:#E6B504;" cx="152.64" cy="37.33" rx="3.31" ry="3.18"/>
					
						<ellipse transform="matrix(0.1458 -0.9893 0.9893 0.1458 93.4513 182.8999)" style="clip-path:url(#SVGID_00000082330610314638918390000016997226693246494628_);fill:#E8B902;" cx="152.64" cy="37.33" rx="3.27" ry="3.14"/>
					
						<ellipse transform="matrix(0.1458 -0.9893 0.9893 0.1458 93.4538 182.9009)" style="clip-path:url(#SVGID_00000082330610314638918390000016997226693246494628_);fill:#EABD02;" cx="152.64" cy="37.33" rx="3.22" ry="3.09"/>
					
						<ellipse transform="matrix(0.1458 -0.9893 0.9893 0.1458 93.4515 182.9)" style="clip-path:url(#SVGID_00000082330610314638918390000016997226693246494628_);fill:#EBC002;" cx="152.64" cy="37.33" rx="3.17" ry="3.05"/>
					
						<ellipse transform="matrix(0.1458 -0.9893 0.9893 0.1458 93.4518 182.9001)" style="clip-path:url(#SVGID_00000082330610314638918390000016997226693246494628_);fill:#ECC300;" cx="152.64" cy="37.33" rx="3.13" ry="3"/>
					
						<ellipse transform="matrix(0.1458 -0.9893 0.9893 0.1458 93.4516 182.9)" style="clip-path:url(#SVGID_00000082330610314638918390000016997226693246494628_);fill:#EEC600;" cx="152.64" cy="37.33" rx="3.08" ry="2.96"/>
					
						<ellipse transform="matrix(0.1458 -0.9893 0.9893 0.1458 93.451 182.8998)" style="clip-path:url(#SVGID_00000082330610314638918390000016997226693246494628_);fill:#EEC900;" cx="152.64" cy="37.33" rx="3.03" ry="2.91"/>
					
						<ellipse transform="matrix(0.1458 -0.9893 0.9893 0.1458 93.4515 182.9)" style="clip-path:url(#SVGID_00000082330610314638918390000016997226693246494628_);fill:#EECB01;" cx="152.64" cy="37.33" rx="2.99" ry="2.87"/>
					
						<ellipse transform="matrix(0.1458 -0.9893 0.9893 0.1458 93.4509 182.8997)" style="clip-path:url(#SVGID_00000082330610314638918390000016997226693246494628_);fill:#F0CC00;" cx="152.64" cy="37.33" rx="2.94" ry="2.82"/>
					
						<ellipse transform="matrix(0.1458 -0.9893 0.9893 0.1458 93.4513 182.8999)" style="clip-path:url(#SVGID_00000082330610314638918390000016997226693246494628_);fill:#F2CF00;" cx="152.64" cy="37.33" rx="2.89" ry="2.78"/>
					
						<ellipse transform="matrix(0.1458 -0.9893 0.9893 0.1458 93.4541 182.901)" style="clip-path:url(#SVGID_00000082330610314638918390000016997226693246494628_);fill:#F3D300;" cx="152.64" cy="37.33" rx="2.85" ry="2.73"/>
					
						<ellipse transform="matrix(0.1458 -0.9893 0.9893 0.1458 93.4516 182.9)" style="clip-path:url(#SVGID_00000082330610314638918390000016997226693246494628_);fill:#F4D400;" cx="152.64" cy="37.33" rx="2.8" ry="2.69"/>
					
						<ellipse transform="matrix(0.1458 -0.9893 0.9893 0.1458 93.4519 182.9001)" style="clip-path:url(#SVGID_00000082330610314638918390000016997226693246494628_);fill:#F4D500;" cx="152.64" cy="37.33" rx="2.75" ry="2.64"/>
					
						<ellipse transform="matrix(0.1458 -0.9893 0.9893 0.1458 93.4516 182.9)" style="clip-path:url(#SVGID_00000082330610314638918390000016997226693246494628_);fill:#F5D700;" cx="152.64" cy="37.33" rx="2.71" ry="2.6"/>
					
						<ellipse transform="matrix(0.1458 -0.9893 0.9893 0.1458 93.451 182.8998)" style="clip-path:url(#SVGID_00000082330610314638918390000016997226693246494628_);fill:#F6D900;" cx="152.64" cy="37.33" rx="2.66" ry="2.56"/>
					
						<ellipse transform="matrix(0.1458 -0.9893 0.9893 0.1458 93.4516 182.9)" style="clip-path:url(#SVGID_00000082330610314638918390000016997226693246494628_);fill:#F5DA00;" cx="152.64" cy="37.33" rx="2.61" ry="2.51"/>
					
						<ellipse transform="matrix(0.1458 -0.9893 0.9893 0.1458 93.451 182.8998)" style="clip-path:url(#SVGID_00000082330610314638918390000016997226693246494628_);fill:#F7DC01;" cx="152.64" cy="37.33" rx="2.57" ry="2.47"/>
					
						<ellipse transform="matrix(0.1458 -0.9893 0.9893 0.1458 93.4513 182.8999)" style="clip-path:url(#SVGID_00000082330610314638918390000016997226693246494628_);fill:#F7DD00;" cx="152.64" cy="37.33" rx="2.52" ry="2.42"/>
					
						<ellipse transform="matrix(0.1458 -0.9893 0.9893 0.1458 93.4545 182.9012)" style="clip-path:url(#SVGID_00000082330610314638918390000016997226693246494628_);fill:#F8DE00;" cx="152.64" cy="37.33" rx="2.47" ry="2.38"/>
					
						<ellipse transform="matrix(0.1458 -0.9893 0.9893 0.1458 93.4538 182.9009)" style="clip-path:url(#SVGID_00000082330610314638918390000016997226693246494628_);fill:#F8DF01;" cx="152.64" cy="37.33" rx="2.43" ry="2.33"/>
					
						<ellipse transform="matrix(0.1458 -0.9893 0.9893 0.1458 93.452 182.9002)" style="clip-path:url(#SVGID_00000082330610314638918390000016997226693246494628_);fill:#F9E000;" cx="152.64" cy="37.33" rx="2.38" ry="2.29"/>
					
						<ellipse transform="matrix(0.1458 -0.9893 0.9893 0.1458 93.4516 182.9001)" style="clip-path:url(#SVGID_00000082330610314638918390000016997226693246494628_);fill:#FAE004;" cx="152.64" cy="37.33" rx="2.33" ry="2.24"/>
					
						<ellipse transform="matrix(0.1458 -0.9893 0.9893 0.1458 93.4509 182.8997)" style="clip-path:url(#SVGID_00000082330610314638918390000016997226693246494628_);fill:#FAE202;" cx="152.64" cy="37.33" rx="2.29" ry="2.2"/>
					
						<ellipse transform="matrix(0.1458 -0.9893 0.9893 0.1458 93.4517 182.9001)" style="clip-path:url(#SVGID_00000082330610314638918390000016997226693246494628_);fill:#F9E302;" cx="152.64" cy="37.33" rx="2.24" ry="2.15"/>
					
						<ellipse transform="matrix(0.1458 -0.9893 0.9893 0.1458 93.4509 182.8997)" style="clip-path:url(#SVGID_00000082330610314638918390000016997226693246494628_);fill:#F9E301;" cx="152.64" cy="37.33" rx="2.19" ry="2.11"/>
					
						<ellipse transform="matrix(0.1458 -0.9893 0.9893 0.1458 93.4513 182.8999)" style="clip-path:url(#SVGID_00000082330610314638918390000016997226693246494628_);fill:#FBE400;" cx="152.64" cy="37.33" rx="2.15" ry="2.06"/>
					
						<ellipse transform="matrix(0.1457 -0.9893 0.9893 0.1457 93.4551 182.9015)" style="clip-path:url(#SVGID_00000082330610314638918390000016997226693246494628_);fill:#FBE400;" cx="152.64" cy="37.33" rx="2.1" ry="2.02"/>
					
						<ellipse transform="matrix(0.1458 -0.9893 0.9893 0.1458 93.4544 182.9011)" style="clip-path:url(#SVGID_00000082330610314638918390000016997226693246494628_);fill:#FAE404;" cx="152.64" cy="37.33" rx="2.05" ry="1.97"/>
					
						<ellipse transform="matrix(0.1458 -0.9893 0.9893 0.1458 93.4522 182.9003)" style="clip-path:url(#SVGID_00000082330610314638918390000016997226693246494628_);fill:#FBE600;" cx="152.64" cy="37.33" rx="2.01" ry="1.93"/>
					
						<ellipse transform="matrix(0.1458 -0.9893 0.9893 0.1458 93.4517 182.9001)" style="clip-path:url(#SVGID_00000082330610314638918390000016997226693246494628_);fill:#FBE600;" cx="152.64" cy="37.33" rx="1.96" ry="1.88"/>
					
						<ellipse transform="matrix(0.1458 -0.9893 0.9893 0.1458 93.4508 182.8997)" style="clip-path:url(#SVGID_00000082330610314638918390000016997226693246494628_);fill:#FBE600;" cx="152.64" cy="37.33" rx="1.91" ry="1.84"/>
					
						<ellipse transform="matrix(0.1458 -0.9893 0.9893 0.1458 93.4517 182.9001)" style="clip-path:url(#SVGID_00000082330610314638918390000016997226693246494628_);fill:#FCE703;" cx="152.64" cy="37.33" rx="1.87" ry="1.79"/>
					
						<ellipse transform="matrix(0.1458 -0.9893 0.9893 0.1458 93.4508 182.8997)" style="clip-path:url(#SVGID_00000082330610314638918390000016997226693246494628_);fill:#FCE703;" cx="152.64" cy="37.33" rx="1.82" ry="1.75"/>
					
						<ellipse transform="matrix(0.1458 -0.9893 0.9893 0.1458 93.4498 182.8993)" style="clip-path:url(#SVGID_00000082330610314638918390000016997226693246494628_);fill:#FCE703;" cx="152.64" cy="37.33" rx="1.77" ry="1.7"/>
					
						<ellipse transform="matrix(0.1457 -0.9893 0.9893 0.1457 93.4558 182.9017)" style="clip-path:url(#SVGID_00000082330610314638918390000016997226693246494628_);fill:#FCE809;" cx="152.64" cy="37.33" rx="1.73" ry="1.66"/>
					
						<ellipse transform="matrix(0.1458 -0.9893 0.9893 0.1458 93.4549 182.9014)" style="clip-path:url(#SVGID_00000082330610314638918390000016997226693246494628_);fill:#FCE809;" cx="152.64" cy="37.33" rx="1.68" ry="1.61"/>
					
						<ellipse transform="matrix(0.1458 -0.9893 0.9893 0.1458 93.4523 182.9003)" style="clip-path:url(#SVGID_00000082330610314638918390000016997226693246494628_);fill:#FCEA0D;" cx="152.64" cy="37.33" rx="1.63" ry="1.57"/>
					
						<ellipse transform="matrix(0.1458 -0.9893 0.9893 0.1458 93.4518 182.9001)" style="clip-path:url(#SVGID_00000082330610314638918390000016997226693246494628_);fill:#FCEA0D;" cx="152.64" cy="37.33" rx="1.59" ry="1.52"/>
					
						<ellipse transform="matrix(0.1458 -0.9893 0.9893 0.1458 93.4507 182.8997)" style="clip-path:url(#SVGID_00000082330610314638918390000016997226693246494628_);fill:#FCEA0D;" cx="152.64" cy="37.33" rx="1.54" ry="1.48"/>
					
						<ellipse transform="matrix(0.1458 -0.9893 0.9893 0.1458 93.4513 182.8999)" style="clip-path:url(#SVGID_00000082330610314638918390000016997226693246494628_);fill:#FCEA0D;" cx="152.64" cy="37.33" rx="1.49" ry="1.43"/>
					
						<ellipse transform="matrix(0.1458 -0.9893 0.9893 0.1458 93.4507 182.8997)" style="clip-path:url(#SVGID_00000082330610314638918390000016997226693246494628_);fill:#FCEA0D;" cx="152.64" cy="37.33" rx="1.45" ry="1.39"/>
					
						<ellipse transform="matrix(0.1458 -0.9893 0.9893 0.1458 93.4494 182.8992)" style="clip-path:url(#SVGID_00000082330610314638918390000016997226693246494628_);fill:#FDE90C;" cx="152.64" cy="37.33" rx="1.4" ry="1.34"/>
					
						<ellipse transform="matrix(0.1458 -0.9893 0.9893 0.1458 93.4507 182.8997)" style="clip-path:url(#SVGID_00000082330610314638918390000016997226693246494628_);fill:#FDE90C;" cx="152.64" cy="37.33" rx="1.35" ry="1.3"/>
					
						<ellipse transform="matrix(0.1457 -0.9893 0.9893 0.1457 93.456 182.9018)" style="clip-path:url(#SVGID_00000082330610314638918390000016997226693246494628_);fill:#FDE90C;" cx="152.64" cy="37.33" rx="1.31" ry="1.26"/>
					
						<ellipse transform="matrix(0.1458 -0.9893 0.9893 0.1458 93.4526 182.9005)" style="clip-path:url(#SVGID_00000082330610314638918390000016997226693246494628_);fill:#FDE90C;" cx="152.64" cy="37.33" rx="1.26" ry="1.21"/>
					
						<ellipse transform="matrix(0.1458 -0.9893 0.9893 0.1458 93.452 182.9002)" style="clip-path:url(#SVGID_00000082330610314638918390000016997226693246494628_);fill:#FDE90C;" cx="152.64" cy="37.33" rx="1.21" ry="1.17"/>
					
						<ellipse transform="matrix(0.1458 -0.9893 0.9893 0.1458 93.4505 182.8996)" style="clip-path:url(#SVGID_00000082330610314638918390000016997226693246494628_);fill:#FDE90C;" cx="152.64" cy="37.33" rx="1.17" ry="1.12"/>
					
						<ellipse transform="matrix(0.1458 -0.9893 0.9893 0.1458 93.4513 182.8999)" style="clip-path:url(#SVGID_00000082330610314638918390000016997226693246494628_);fill:#FDE90C;" cx="152.64" cy="37.33" rx="1.12" ry="1.08"/>
					
						<ellipse transform="matrix(0.1458 -0.9893 0.9893 0.1458 93.4505 182.8996)" style="clip-path:url(#SVGID_00000082330610314638918390000016997226693246494628_);fill:#FDE90C;" cx="152.64" cy="37.33" rx="1.07" ry="1.03"/>
					
						<ellipse transform="matrix(0.1458 -0.9893 0.9893 0.1458 93.4488 182.8989)" style="clip-path:url(#SVGID_00000082330610314638918390000016997226693246494628_);fill:#FDE90C;" cx="152.64" cy="37.33" rx="1.03" ry="0.99"/>
					
						<ellipse transform="matrix(0.1458 -0.9893 0.9893 0.1458 93.4504 182.8996)" style="clip-path:url(#SVGID_00000082330610314638918390000016997226693246494628_);fill:#FDE90C;" cx="152.64" cy="37.33" rx="0.98" ry="0.94"/>
					<path style="clip-path:url(#SVGID_00000082330610314638918390000016997226693246494628_);fill:#FDE90C;" d="M153.51,37.53
						c-0.11,0.5-0.59,0.83-1.07,0.72c-0.48-0.11-0.79-0.6-0.68-1.11c0.11-0.5,0.59-0.83,1.07-0.72
						C153.32,36.53,153.62,37.02,153.51,37.53z"/>
					
						<ellipse transform="matrix(0.1458 -0.9893 0.9893 0.1458 93.4532 182.9007)" style="clip-path:url(#SVGID_00000082330610314638918390000016997226693246494628_);fill:#FDE90C;" cx="152.64" cy="37.33" rx="0.89" ry="0.85"/>
					<path style="clip-path:url(#SVGID_00000082330610314638918390000016997226693246494628_);fill:#FDE90C;" d="M153.43,37.51
						c-0.1,0.45-0.53,0.74-0.96,0.65c-0.44-0.1-0.71-0.54-0.61-0.99c0.1-0.45,0.53-0.74,0.96-0.65
						C153.25,36.61,153.52,37.05,153.43,37.51z"/>
					<path style="clip-path:url(#SVGID_00000082330610314638918390000016997226693246494628_);fill:#FDE90C;" d="M153.38,37.5
						c-0.09,0.43-0.5,0.7-0.91,0.61c-0.41-0.09-0.67-0.51-0.58-0.94c0.09-0.43,0.5-0.7,0.91-0.61
						C153.22,36.65,153.47,37.07,153.38,37.5z"/>
					
						<ellipse transform="matrix(0.1458 -0.9893 0.9893 0.1458 93.4514 182.8999)" style="clip-path:url(#SVGID_00000082330610314638918390000016997226693246494628_);fill:#FDE90C;" cx="152.64" cy="37.33" rx="0.75" ry="0.72"/>
					<path style="clip-path:url(#SVGID_00000082330610314638918390000016997226693246494628_);fill:#FDE90C;" d="M153.3,37.48
						c-0.08,0.38-0.44,0.62-0.8,0.54c-0.36-0.08-0.59-0.45-0.51-0.83c0.08-0.38,0.44-0.62,0.8-0.54
						C153.15,36.73,153.38,37.1,153.3,37.48z"/>
					<path style="clip-path:url(#SVGID_00000082330610314638918390000016997226693246494628_);fill:#FDE90C;" d="M153.25,37.47
						c-0.08,0.35-0.41,0.58-0.75,0.5s-0.55-0.42-0.48-0.77s0.41-0.58,0.75-0.5C153.11,36.77,153.33,37.12,153.25,37.47z"/>
					<path style="clip-path:url(#SVGID_00000082330610314638918390000016997226693246494628_);fill:#FDE90C;" d="M153.21,37.46
						c-0.07,0.33-0.38,0.54-0.7,0.47c-0.31-0.07-0.51-0.39-0.44-0.72c0.07-0.33,0.38-0.54,0.7-0.47
						C153.08,36.81,153.28,37.13,153.21,37.46z"/>
					<path style="clip-path:url(#SVGID_00000082330610314638918390000016997226693246494628_);fill:#FDE90C;" d="M153.16,37.45
						c-0.06,0.3-0.35,0.5-0.64,0.43c-0.29-0.06-0.47-0.36-0.41-0.66c0.06-0.3,0.35-0.5,0.64-0.43
						C153.05,36.85,153.23,37.15,153.16,37.45z"/>
					
						<ellipse transform="matrix(0.1458 -0.9893 0.9893 0.1458 93.4542 182.9011)" style="clip-path:url(#SVGID_00000082330610314638918390000016997226693246494628_);fill:#FDE90C;" cx="152.64" cy="37.33" rx="0.51" ry="0.49"/>
					<path style="clip-path:url(#SVGID_00000082330610314638918390000016997226693246494628_);fill:#FDE90C;" d="M153.08,37.43
						c-0.05,0.25-0.29,0.41-0.54,0.36s-0.39-0.3-0.34-0.55c0.05-0.25,0.29-0.41,0.54-0.36C152.98,36.93,153.13,37.18,153.08,37.43z"
						/>
					<path style="clip-path:url(#SVGID_00000082330610314638918390000016997226693246494628_);fill:#FDE90C;" d="M153.03,37.42
						c-0.05,0.23-0.26,0.37-0.48,0.32c-0.22-0.05-0.35-0.27-0.31-0.5c0.05-0.23,0.26-0.37,0.48-0.32
						C152.94,36.97,153.08,37.19,153.03,37.42z"/>
					
						<ellipse transform="matrix(0.1458 -0.9893 0.9893 0.1458 93.4513 182.8999)" style="clip-path:url(#SVGID_00000082330610314638918390000016997226693246494628_);fill:#FDE90C;" cx="152.64" cy="37.33" rx="0.37" ry="0.36"/>
					<path style="clip-path:url(#SVGID_00000082330610314638918390000016997226693246494628_);fill:#FDE90C;" d="M152.94,37.4
						c-0.04,0.18-0.21,0.29-0.37,0.25c-0.17-0.04-0.28-0.21-0.24-0.39c0.04-0.18,0.21-0.29,0.37-0.25S152.98,37.23,152.94,37.4z"/>
					<path style="clip-path:url(#SVGID_00000082330610314638918390000016997226693246494628_);fill:#FDE90C;" d="M152.9,37.39
						c-0.03,0.15-0.18,0.25-0.32,0.22c-0.15-0.03-0.24-0.18-0.2-0.33c0.03-0.15,0.18-0.25,0.32-0.22
						C152.84,37.09,152.93,37.24,152.9,37.39z"/>
					<path style="clip-path:url(#SVGID_00000082330610314638918390000016997226693246494628_);fill:#FDE90C;" d="M152.86,37.38
						c-0.03,0.13-0.15,0.21-0.27,0.18c-0.12-0.03-0.2-0.15-0.17-0.28c0.03-0.13,0.15-0.21,0.27-0.18
						C152.81,37.13,152.88,37.26,152.86,37.38z"/>
					<path style="clip-path:url(#SVGID_00000082330610314638918390000016997226693246494628_);fill:#FDE90C;" d="M152.81,37.37
						c-0.02,0.1-0.12,0.17-0.21,0.14s-0.16-0.12-0.14-0.22c0.02-0.1,0.12-0.17,0.21-0.14C152.77,37.17,152.83,37.27,152.81,37.37z"
						/>
					<path style="clip-path:url(#SVGID_00000082330610314638918390000016997226693246494628_);fill:#FDE90C;" d="M152.77,37.36
						c-0.02,0.08-0.09,0.12-0.16,0.11s-0.12-0.09-0.1-0.17c0.02-0.08,0.09-0.12,0.16-0.11C152.74,37.21,152.79,37.29,152.77,37.36z"
						/>
					<path style="clip-path:url(#SVGID_00000082330610314638918390000016997226693246494628_);fill:#FDE90C;" d="M152.73,37.35
						c-0.01,0.05-0.06,0.08-0.11,0.07c-0.05-0.01-0.08-0.06-0.07-0.11c0.01-0.05,0.06-0.08,0.11-0.07
						C152.71,37.25,152.74,37.3,152.73,37.35z"/>
					<path style="clip-path:url(#SVGID_00000082330610314638918390000016997226693246494628_);fill:#FDE90C;" d="M152.68,37.34
						c-0.01,0.03-0.03,0.04-0.05,0.04c-0.02-0.01-0.04-0.03-0.03-0.06s0.03-0.04,0.05-0.04S152.69,37.32,152.68,37.34z"/>
				</g>
			</g>
			<g>
				<polygon class="st7" points="152.12,36.97 150.8,35.7 152.39,36.61 152.34,34.76 152.83,36.54 154.09,35.2 153.18,36.81 
					155.01,36.76 153.25,37.26 154.58,38.53 152.98,37.62 153.03,39.47 152.54,37.69 151.29,39.03 152.19,37.42 150.36,37.47 				
					"/>
			</g>
			<g>
				<path class="st6" d="M151.19,37c-0.17,0.81,0.33,1.61,1.13,1.79c0.8,0.18,1.59-0.34,1.76-1.15c0.17-0.81-0.33-1.61-1.13-1.79
					C152.16,35.68,151.37,36.19,151.19,37z"/>
			</g>
		</g>
	</g>
	<path class="st4" d="M163.47,39.15c-1.74,0.82-3.35,1.85-5,2.82c-0.6,0.35-1.19,0.73-1.76,1.13c-1.32,0.95-2.75,1.6-4.37,1.83
		c-0.6,0.08-1.04-0.51-1.67-0.01c0.16,0.07,0.03,0.18,0.72,0.33c0.74,0.16,0.86,1.58,0.46,2.23c-0.36,0.59-0.92,0.75-1.6,0.79
		c0.74,1.16,0.72,2.21-0.06,3.33c-1.54,2.22-2.46,4.71-2.84,7.39c-0.25,1.75,0.11,3.34,1.18,4.77c0.31,0.42,0.78,0.72,1.04,1.28
		l0.99,1.28c0.17,0.06,0.33,0.11,0.5,0.16c0.38,0.12,0.35-0.17,0.42-0.35c0.08-0.2,0.2-0.4-0.16-0.5c-0.35-0.09-0.74-0.14-1.02-0.4
		c-0.68-0.63-1.28-1.34-1.71-2.15c-0.65-1.2-0.85-2.52-0.73-3.88c0.19-2.19,0.94-4.19,1.97-6.11c1.4-2.6,3.21-4.9,5.35-6.91
		c2.43-2.28,5.11-4.26,7.97-5.99c0.41-0.25,0.87-0.51,1.14-0.97C163.95,39.07,163.75,39.01,163.47,39.15z"/>
	<polygon class="st3" points="149.26,64.63 150.65,66.35 150.43,66.27 149.15,64.71 	"/>
	<path class="st4" d="M185.4,20.02c-0.03-0.01-0.38-0.14-0.87-0.3c-10.12-3.22-21.12,3.13-21.12,3.13c1.25-0.37,2.42-0.73,3.6-1.06
		c2.85-0.8,5.72-1.48,8.66-1.84c1.89-0.23,3.77-0.36,5.67-0.31c1.16,0.03,1.19,0,3.54,0.31C185.08,19.97,185.37,20.01,185.4,20.02
		C185.4,20.02,185.4,20.02,185.4,20.02z"/>
	<path class="st4" d="M194.55,28.7c-8.23-9.14-21.87-3.96-21.87-3.96S185.88,22.09,194.55,28.7z"/>
	<path class="st4" d="M170.9,34.38c0,0,7.04-4.89,13.81-6.23c-0.45,0.02-0.75,0.03-1.05,0.06c-2.55,0.24-4.93,1.12-7.27,2.09
		c-2.34,0.98-4.48,2.33-6.62,3.66c-0.45,0.28-0.93,0.56-1.37,0.88c-0.44,0.32-0.86,0.73-1.45,0.87c0.02-0.08,0.01-0.14,0.04-0.18
		c0.85-1.82,2.15-3.31,3.54-4.72c1.46-1.49,2.94-2.95,4.97-3.68c0.11-0.04,0.35-0.06,0.28-0.26c-0.06-0.17-0.24-0.1-0.39-0.07
		c-0.78,0.16-1.46,0.56-2.08,0.99c-2.01,1.41-3.74,3.15-5.35,4.99c-1.13,1.3-2.28,2.57-3.55,3.74c-0.7,0.64-1.53,1.09-2.27,1.67
		c-0.09,0.07-0.27,0.08-0.18,0.28c0.08,0.16,0.18,0.26,0.38,0.26c0.2,0,0.35-0.07,0.52-0.15c0.54-0.27,1.08-0.55,1.66-0.73
		c0.57-0.18,1.05-0.12,1.12,0.26c0.1,0.62,0.35,0.28,0.53,0.11C167.62,36.77,169.21,35.5,170.9,34.38L170.9,34.38z"/>
	<path class="st4" d="M174.14,16.12C174.14,16.12,174.14,16.12,174.14,16.12c0-0.08-0.06-0.12-0.12-0.15
		c-0.01,0-0.02-0.01-0.03-0.01c0,0,0,0,0,0c-0.05-0.01-0.1-0.01-0.16-0.01c-0.81,0-1.83,0.06-2.73,0.16
		c-2.4,0.26-4.75,0.72-7.07,1.44c-1.69,0.52-3.29,1.22-4.88,1.94c-1.75,0.79-3.36,1.85-4.93,2.97c-1.32,0.95-2.59,1.95-3.77,3.07
		c-1.83,1.76-3.49,3.65-4.97,5.72c-1.55,2.16-2.84,4.47-4.01,6.85c-0.67,1.36-1,2.81-0.98,4.33c0.01,0.68,0.24,1.25,0.9,1.61
		c0.24,0.13,0.53-0.02,0.73,0.22c-0.24,0.25-0.51,0.49-0.72,0.78c-0.7,0.93-1.14,2.24-0.47,3.43l0.68-0.93
		c-0.11-0.71,0.05-1.43,0.52-2.01c0.71-0.89,1.63-1.52,2.48-2.24c0.15-0.13,0.41-0.19,0.18-0.43c-0.16-0.17-0.28-0.47-0.65-0.23
		c-0.54,0.34-1.14,0.55-1.78,0.68c-0.7,0.14-0.98-0.16-1.02-0.88c-0.05-0.86,0.12-1.7,0.37-2.52c0.34-1.14,0.92-2.18,1.45-3.23
		c1.38-2.74,3.09-5.28,5.08-7.59c1.84-2.14,3.88-4.08,6.2-5.73c1.41-1,2.84-1.93,4.36-2.73c1.8-0.96,3.69-1.72,5.63-2.31
		c1.61-0.5,3.26-0.87,4.94-1.1c1.31-0.18,2.61-0.29,3.92-0.31l0,0h0.53c0.05,0,0.09,0,0.12-0.01c0.09-0.02,0.2-0.08,0.2-0.27
		c0-0.03,0-0.05,0-0.08L174.14,16.12z"/>
	<path class="st3" d="M142.13,44.25l1.93-1.59l0.15-0.09c0,0,0.23-0.15,0.39,0.03c0,0,0.12,0.1,0.27,0.31c0,0,0.12,0.14-0.08,0.25
		c0,0-0.19,0.14-0.48,0.38l-1.07,0.88c0,0-0.67,0.57-0.94,0.92c0,0-0.81,0.89-0.67,2.2l0.1,1.1l-0.78-0.16c0,0-0.64-0.92-0.16-2.27
		C140.78,46.19,141.07,45.19,142.13,44.25z"/>
	<path class="st40" d="M163.55,39.11c0,0,0.28-0.17,1.01,0.15l-0.67,0.42l-0.47,0.03L163.55,39.11z"/>
	<g>
		<polygon class="st4" points="29.35,63.03 29.35,66.11 38.58,66.11 38.58,56.02 47.21,56.02 47.21,66.11 56.68,66.11 56.68,63.01 
			56.68,37.82 47.21,37.82 47.21,47.65 38.46,47.65 38.46,37.82 29.35,37.82 29.35,40.91 		"/>
		<g>
			<path class="st4" d="M122.47,38.67v27.44h9.02v-6.79c0.27-2.56,2.09-2.32,2.63-2.19l5.79,8.97h4.03h1.34
				c-6.89-4.1-7.13-9.68-6.66-13.24l-1.58-2.16l1.37-1.89c-0.85-2.02,0.53-3.85,0.53-3.85c-0.16-0.07-0.3-0.15-0.42-0.24
				c-1.77-1.38,0.2-5.82,0.2-5.82l-0.72,1.24l-0.86,1.31l-4.83,6.66h-1.37V37.82h-8.1h-0.34"/>
		</g>
		<polyline class="st4" points="122.47,37.82 114.38,37.82 108.5,51.97 104.04,37.82 96.92,37.82 92.7,51.97 86.25,37.82 
			77.89,37.82 89.97,66.11 95.27,66.11 100.31,52.71 105.44,66.11 111.4,66.11 122.47,38.67 		"/>
		<path class="st4" d="M75.47,37.82h-8.91L55.85,63.01v3.1h8.39l1.74-4.07h9.96l1.95,4.07h9.54L75.47,37.82z M68.14,56.37l3.19-7.33
			l3.19,7.33H68.14z"/>
	</g>
	<circle class="st4" cx="149.84" cy="36.01" r="0.55"/>
	<circle class="st4" cx="165.18" cy="31.5" r="0.55"/>
	<g>
		<path class="st4" d="M113.52,85.23h-5.73c-0.21-0.52-0.72-0.9-1.32-0.9c-0.79,0-1.42,0.64-1.42,1.42c0,0.79,0.64,1.42,1.42,1.42
			c0.6,0,1.11-0.37,1.32-0.9H114l7.9-9.27h29.92v-1.05h-30.41L113.52,85.23z"/>
		<path class="st4" d="M66.08,70.24c0.6,0,1.11-0.37,1.32-0.9h32.03l2.73,2.99h11.09v-1.05h-10.62L99.9,68.3H67.4
			c-0.21-0.52-0.72-0.9-1.32-0.9c-0.79,0-1.42,0.64-1.42,1.42C64.66,69.61,65.3,70.24,66.08,70.24z"/>
		<path class="st4" d="M34.5,76.18c0.62,0,1.14-0.39,1.34-0.94H43l2.36-2.94h41.99c0.21,0.52,0.72,0.9,1.32,0.9
			c0.79,0,1.42-0.64,1.42-1.42c0-0.79-0.64-1.42-1.42-1.42c-0.6,0-1.11,0.37-1.32,0.9h-42.5l-2.36,2.94H35.8
			c-0.22-0.5-0.72-0.85-1.3-0.85c-0.79,0-1.42,0.64-1.42,1.42C33.08,75.55,33.72,76.18,34.5,76.18z"/>
		<path class="st4" d="M56.16,78.99H38.1l-1.91,2.12h-4.05c-0.21-0.52-0.72-0.9-1.32-0.9c-0.79,0-1.42,0.64-1.42,1.42
			c0,0.79,0.64,1.42,1.42,1.42c0.6,0,1.11-0.37,1.32-0.9h4.52l1.91-2.12h17.6V78.99z"/>
		<path class="st4" d="M110.41,81.04h-6.42l-1.93,1.93H72.01c-0.21-0.58-0.77-0.99-1.43-0.99c-0.84,0-1.52,0.68-1.52,1.52
			s0.68,1.52,1.52,1.52c0.65,0,1.21-0.41,1.43-0.99h30.49l1.93-1.93h6.48l6.25-7.5h34.67v-1.05h-35.17L110.41,81.04z M70.58,83.96
			c-0.26,0-0.47-0.21-0.47-0.47c0-0.26,0.21-0.47,0.47-0.47c0.26,0,0.47,0.21,0.47,0.47C71.05,83.75,70.84,83.96,70.58,83.96z"/>
		<path class="st4" d="M115.09,71.24l-6.57,7.54H59.59l-2.74,2.98h-3.7c-0.21-0.52-0.72-0.9-1.32-0.9c-0.79,0-1.42,0.64-1.42,1.42
			c0,0.79,0.64,1.42,1.42,1.42c0.6,0,1.11-0.37,1.32-0.9h4.17l2.74-2.98H109l6.57-7.54h36.25v-1.05H115.09z"/>
		<path class="st4" d="M49.47,75.19c-0.21-0.58-0.77-0.99-1.43-0.99c-0.84,0-1.52,0.68-1.52,1.52c0,0.84,0.68,1.52,1.52,1.52
			c0.65,0,1.21-0.41,1.43-0.99h46.64l2.13-1.87c0.16,0.05,0.32,0.09,0.5,0.09c0.84,0,1.52-0.68,1.52-1.52
			c0-0.84-0.68-1.52-1.52-1.52c-0.84,0-1.52,0.68-1.52,1.52c0,0.28,0.07,0.53,0.2,0.76l-1.7,1.5H49.47z M48.04,76.19
			c-0.26,0-0.47-0.21-0.47-0.47c0-0.26,0.21-0.47,0.47-0.47s0.47,0.21,0.47,0.47C48.51,75.98,48.3,76.19,48.04,76.19z M98.74,72.47
			c0.26,0,0.47,0.21,0.47,0.47s-0.21,0.47-0.47,0.47s-0.47-0.21-0.47-0.47S98.48,72.47,98.74,72.47z"/>
	</g>
</g>
</svg>
