<?xml version="1.0" encoding="iso-8859-1"?>
<!-- Generator: Adobe Illustrator 18.0.0, SVG Export Plug-In . SVG Version: 6.00 Build 0)  -->
<!DOCTYPE svg PUBLIC "-//W3C//DTD SVG 1.1//EN" "http://www.w3.org/Graphics/SVG/1.1/DTD/svg11.dtd">
<svg version="1.1" id="Capa_1" xmlns="http://www.w3.org/2000/svg" xmlns:xlink="http://www.w3.org/1999/xlink" x="0px" y="0px"
	 viewBox="0 0 297 297" style="enable-background:new 0 0 297 297;" xml:space="preserve">
<path style="fill:#FFC61B" d="M263.805,0.029H33.194C14.891,0.029,0,14.919,0,33.221v161.392c0,18.301,14.891,33.188,33.194,33.188h67.735l-12.228,48.902
	h-9.387c-5.596,0-10.132,4.538-10.132,10.134c0,5.596,4.536,10.134,10.132,10.134h138.369c5.596,0,10.133-4.538,10.133-10.134
	c0-5.596-4.537-10.134-10.133-10.134h-9.387l-12.227-48.902h67.733c18.304,0,33.195-14.888,33.195-33.188V33.221
	C297,14.919,282.108,0.029,263.805,0.029z M276.731,33.221v105.145H169.025l-20.344-72.102c-0.969-3.426-3.662-6.091-7.098-7.027
	l-32.881-8.935l-7.8-30.005h162.901C270.933,20.297,276.731,26.095,276.731,33.221z M84.49,90.432l19.207-20.487l27.037,7.345
	l22.615,80.149l-46.246,13.125L84.49,90.432z M33.194,20.297h46.77l9.226,35.487L65.791,80.743c-2.431,2.592-3.326,6.267-2.36,9.684
	l13.528,47.939h-56.69V33.221C20.269,26.095,26.067,20.297,33.194,20.297z M187.407,276.703h-77.814l12.228-48.902h53.359
	L187.407,276.703z M263.805,207.535H33.194c-7.127,0-12.926-5.797-12.926-12.923v-35.979h62.409l7.677,27.201
	c0.731,2.588,2.461,4.781,4.811,6.094c1.522,0.853,3.227,1.287,4.942,1.287c0.927,0,1.858-0.127,2.767-0.385l65.743-18.657
	c5.378-1.526,8.503-7.121,6.985-12.502l-0.857-3.038h101.986v35.979C276.731,201.738,270.933,207.535,263.805,207.535z"/>
<g>
</g>
<g>
</g>
<g>
</g>
<g>
</g>
<g>
</g>
<g>
</g>
<g>
</g>
<g>
</g>
<g>
</g>
<g>
</g>
<g>
</g>
<g>
</g>
<g>
</g>
<g>
</g>
<g>
</g>
</svg>
