<?xml version="1.0" encoding="iso-8859-1"?>
<!-- Generator: Adobe Illustrator 19.0.0, SVG Export Plug-In . SVG Version: 6.00 Build 0)  -->
<svg version="1.1" id="Layer_1" xmlns="http://www.w3.org/2000/svg" xmlns:xlink="http://www.w3.org/1999/xlink" x="0px" y="0px"
	 viewBox="0 0 480 480" style="enable-background:new 0 0 480 480;" xml:space="preserve">
<g>
	<g>
		<path style="fill:#FFC61B" d="M470,241.311h-16.143c0.013-0.948,0.036-1.894,0.036-2.845c0-56.521-22.009-109.655-61.972-149.613
			c-37.248-37.243-85.942-58.88-138.151-61.646V10c0-5.523-4.477-10-10-10s-10,4.477-10,10v17.08
			c-53.316,2.104-103.136,23.841-141.076,61.774C52.729,128.81,30.72,181.943,30.72,238.466c0,0.95,0.022,1.897,0.035,2.845H10
			c-5.523,0-10,4.477-10,10c0,5.523,4.477,10,10,10h21.945c5.107,47.886,26.219,92.254,60.749,126.787
			c37.943,37.947,87.763,59.692,141.077,61.797V470c0,5.523,4.477,10,10,10s10-4.477,10-10v-20.233
			c103.741-5.561,187.862-86.214,198.887-188.455H470c5.522,0,10-4.477,10-10S475.522,241.311,470,241.311z M301.639,420.663
			c-15.215,4.968-31.26,8.078-47.869,9.063v-53.989c0-5.522-4.477-9.999-10-9.999s-10,4.477-10,10v54.141
			c-17.96-0.793-35.285-4.069-51.64-9.495V378.72c0-23.772,5.064-43.562,14.646-57.232c10.155-14.487,25.332-21.833,45.109-21.833
			c19.788,0,34.968,7.345,45.118,21.831c9.574,13.666,14.636,33.456,14.636,57.233V420.663z M179.996,217.338
			c0-34.329,27.953-62.258,62.313-62.258s62.314,27.929,62.314,62.258c0,34.362-27.954,62.317-62.314,62.317
			S179.996,251.7,179.996,217.338z M433.858,241.311h-50.579c-5.522,0-10,4.477-10,10c0,5.523,4.478,10,10,10h49.248
			c-8.056,67.511-51.336,124.354-110.887,151.557V378.72c0-27.905-6.313-51.665-18.257-68.71
			c-5.98-8.537-13.323-15.337-21.839-20.324c25.64-13.961,43.078-41.156,43.078-72.348c0-45.357-36.926-82.258-82.314-82.258
			c-45.387,0-82.313,36.901-82.313,82.258c0,31.017,17.249,58.073,42.652,72.104c-8.689,5.007-16.17,11.893-22.249,20.566
			c-11.951,17.051-18.269,40.811-18.269,68.711v33.746C103.016,385.11,60.105,328.496,52.087,261.311h52.176c5.523,0,10-4.477,10-10
			c0-5.523-4.477-10-10-10H50.756c-0.014-0.948-0.036-1.894-0.036-2.845c0-102.767,81.355-186.881,183.051-191.37v49.625
			c0,5.523,4.477,10,10,10s10-4.477,10-10V47.248c100.322,5.944,180.123,89.431,180.123,191.218
			C433.894,239.417,433.872,240.363,433.858,241.311z"/>
	</g>
</g>
<g>
</g>
<g>
</g>
<g>
</g>
<g>
</g>
<g>
</g>
<g>
</g>
<g>
</g>
<g>
</g>
<g>
</g>
<g>
</g>
<g>
</g>
<g>
</g>
<g>
</g>
<g>
</g>
<g>
</g>
</svg>
